<svg width="0" height="0" class="hidden">
  <symbol xmlns="http://www.w3.org/2000/svg" viewBox="0 0 11 7" id="ic_arrow_down">
    <path d="M5.5 4.30509L9.23178 0.323546C9.63611 -0.107849 10.2924 -0.107849 10.6968 0.323546C11.1011 0.75494 11.1011 1.45517 10.6968 1.88657L6.19049 6.69443C5.80862 7.10186 5.1904 7.10186 4.80951 6.69443L0.303249 1.88657C-0.101084 1.45517 -0.101084 0.75494 0.303249 0.323545C0.707582 -0.107849 1.36389 -0.107849 1.76822 0.323545L5.5 4.30509Z" fill="currentColor"></path>
  </symbol>
  <symbol xmlns="http://www.w3.org/2000/svg" viewBox="0 0 20 15" id="ic_arrow_left">
    <path d="M6.79759 14.7253C6.97981 14.9086 7.21796 15 7.45657 15C7.69518 15 7.93333 14.9086 8.11555 14.7253C8.47954 14.3592 8.47954 13.7658 8.11555 13.3997L3.18202 8.43745H19.0679C19.5824 8.43745 20 8.01745 20 7.49994C20 6.98244 19.5824 6.56243 19.0679 6.56243H3.18202L8.11555 1.60021C8.47954 1.23411 8.47954 0.640669 8.11555 0.274572C7.75158 -0.0915242 7.16157 -0.0915242 6.79759 0.274572L0.272985 6.83712C-0.0909949 7.20322 -0.0909949 7.79666 0.272985 8.16276L6.79759 14.7253Z" fill="currentColor"></path>
  </symbol>
  <symbol xmlns="http://www.w3.org/2000/svg" viewBox="0 0 28 18" id="ic_category1">
    <path fill-rule="evenodd" clip-rule="evenodd" d="M5.63053 7.54839C6.07585 3.32155 9.63835 0 14 0C18.3616 0 21.9241 3.32155 22.3695 7.54839H22.75C25.6391 7.54839 28 9.89842 28 12.7742C28 15.65 25.6391 18 22.75 18H14H5.25C2.36091 18 0 15.65 0 12.7742C0 9.89842 2.36091 7.54839 5.25 7.54839H5.63053ZM20.7083 8.41935C20.7083 4.72098 17.7155 1.74194 14 1.74194C10.2845 1.74194 7.29167 4.72098 7.29167 8.41935C7.29162 8.90036 6.8999 9.29027 6.41667 9.29032H5.25C3.30675 9.29032 1.75 10.8399 1.75 12.7742C1.75 14.7085 3.30675 16.2581 5.25 16.2581H14H22.75C24.6932 16.2581 26.25 14.7085 26.25 12.7742C26.25 10.8399 24.6932 9.29032 22.75 9.29032H21.5833C21.1001 9.29027 20.7084 8.90036 20.7083 8.41935Z" fill="currentColor"></path>
  </symbol>
  <symbol xmlns="http://www.w3.org/2000/svg" viewBox="0 0 28 27" id="ic_category2">
    <path fill-rule="evenodd" clip-rule="evenodd" d="M0 3.1957C0 1.44339 1.42275 0 3.15 0H24.85C26.5773 0 28 1.44339 28 3.1957V18.109C28 19.8613 26.5773 21.3047 24.85 21.3047H18.9V24.8554H21.35C21.7287 24.85 22.0809 25.0518 22.2718 25.3837C22.4627 25.7155 22.4627 26.1259 22.2718 26.4577C22.0809 26.7895 21.7287 26.9913 21.35 26.9859H18.0182C17.9054 27.0047 17.7905 27.0047 17.6777 26.9859H10.3182C10.2054 27.0047 10.0905 27.0047 9.97773 26.9859H6.65C6.27133 26.9913 5.91911 26.7895 5.72822 26.4577C5.53732 26.1259 5.53732 25.7155 5.72822 25.3837C5.91911 25.0518 6.27133 24.85 6.65 24.8554H9.1V21.3047H3.15C1.42275 21.3047 0 19.8613 0 18.109V3.1957ZM24.85 2.13047H3.15C2.55745 2.13047 2.1 2.59455 2.1 3.1957V18.109C2.1 18.7101 2.55745 19.1742 3.15 19.1742H9.98184C10.0946 19.1554 10.2095 19.1554 10.3223 19.1742H17.6818C17.7946 19.1554 17.9095 19.1554 18.0223 19.1742H24.85C25.4425 19.1742 25.9 18.7101 25.9 18.109V3.1957C25.9 2.59455 25.4425 2.13047 24.85 2.13047ZM19.2293 6.38179C18.9566 6.38985 18.6977 6.50526 18.5074 6.70358L12.2498 13.052L9.49218 10.2544C9.22882 9.97609 8.83775 9.864 8.4698 9.96131C8.10184 10.0586 7.81449 10.3502 7.71856 10.7234C7.62263 11.0967 7.73312 11.4935 8.00741 11.7607L11.5074 15.3114C11.9175 15.7273 12.5821 15.7273 12.9922 15.3114L19.9922 8.20989C20.3022 7.90356 20.3953 7.43566 20.2265 7.03135C20.0578 6.62704 19.6619 6.36915 19.2293 6.38179ZM16.8002 21.3047H11.2002V24.8555H16.8002V21.3047Z" fill="currentColor"></path>
  </symbol>
  <symbol xmlns="http://www.w3.org/2000/svg" viewBox="0 0 28 17" id="ic_category3">
    <path fill-rule="evenodd" clip-rule="evenodd" d="M6.57181 0.00110596C6.43368 0.00439127 6.29617 0.0148138 6.15933 0.0327935C5.0646 0.176631 4.03418 0.787446 3.43473 1.81702L0.131164 7.48779C0.123795 7.50102 0.116752 7.51443 0.110043 7.528C0.095346 7.55577 0.082077 7.58424 0.0702864 7.61332C0.0106272 7.75724 -0.0115753 7.91346 0.00568112 8.0679V10.7601C0.00568112 14.195 2.86512 17 6.36681 17C9.8685 17 12.7279 14.195 12.7279 10.7601V8.26412C12.7279 7.56379 13.2862 7.01614 14.0002 7.01614C14.7141 7.01614 15.2724 7.56379 15.2724 8.26412V10.7601C15.2724 14.195 18.1318 17 21.6335 17C25.1352 17 27.9947 14.195 27.9947 10.7601V8.06425C28.0123 7.90164 27.9861 7.73734 27.9189 7.58772C27.907 7.55989 27.8937 7.53264 27.8791 7.50607L27.8779 7.50363L27.8766 7.50241L27.8692 7.48779L24.5656 1.81702C23.3668 -0.2421 20.442 -0.625644 18.7325 1.05044C18.4832 1.2852 18.3828 1.6338 18.47 1.96181C18.5572 2.28981 18.8183 2.54596 19.1527 2.63147C19.4871 2.71698 19.8424 2.61849 20.0818 2.37398C20.9358 1.53662 22.3095 1.71733 22.9082 2.74569L25.3955 7.01614H16.9037C16.4082 5.92035 15.2925 5.14416 14.0002 5.14416C12.7078 5.14416 11.5922 5.92035 11.0967 7.01614H2.6048L5.0921 2.74569C5.69085 1.71733 7.06453 1.53662 7.91858 2.37398C8.15791 2.61849 8.51328 2.71698 8.84766 2.63147C9.18203 2.54596 9.44316 2.28981 9.53033 1.96181C9.6175 1.6338 9.5171 1.2852 9.26784 1.05044C8.51994 0.317151 7.53873 -0.0218881 6.57181 0.00110596ZM1.91402 8.88811H10.8196V10.7601C10.8196 13.1832 8.83696 15.128 6.36681 15.128C3.89667 15.128 1.91402 13.1832 1.91402 10.7601V8.88811ZM26.0863 8.88811H17.1807V10.7601C17.1807 13.1832 19.1634 15.128 21.6335 15.128C24.1037 15.128 26.0863 13.1832 26.0863 10.7601V8.88811Z" fill="currentColor"></path>
  </symbol>
  <symbol xmlns="http://www.w3.org/2000/svg" viewBox="0 0 28 28" id="ic_category4">
    <path d="M24.745 19.3713L24.7443 19.3729C24.3758 20.2439 23.5051 20.8451 22.5716 20.8451H12.0486C11.8514 20.8451 11.651 20.9229 11.5255 21.0479C11.5253 21.0482 11.5251 21.0484 11.5248 21.0486L7.131 25.2747V21.6072C7.131 21.2037 6.80772 20.8801 6.40392 20.8801H3.9996C2.73062 20.8801 1.69527 19.8447 1.69527 18.5758V7.25133C1.69527 5.98234 2.73067 4.947 3.9996 4.947H15.3937C15.7972 4.947 16.1208 4.62372 16.1208 4.21992C16.1208 3.81643 15.7975 3.49285 15.3937 3.49285H3.9996C1.92339 3.49285 0.206152 5.21009 0.206152 7.2863V18.6107C0.206152 20.6869 1.92339 22.4042 3.9996 22.4042H5.64182V27.0096L5.64175 27.0096V27.0778C5.64175 27.35 5.7978 27.6473 6.13129 27.6974C6.17791 27.7174 6.22858 27.726 6.27165 27.7303C6.3202 27.7352 6.36789 27.7352 6.40211 27.7352H6.40359C6.60071 27.7352 6.80102 27.6574 6.9265 27.5324C6.92678 27.5322 6.92707 27.5319 6.92735 27.5316L12.3674 22.3342H22.5716C24.1108 22.3342 25.5413 21.3685 26.1141 19.9368L26.1141 19.9367C26.2753 19.5334 26.071 19.1308 25.7133 18.9719L25.7133 18.9719L25.7098 18.9705C25.3064 18.8093 24.9039 19.0136 24.745 19.3713ZM27.7938 9.16777V8.95767L27.7865 8.96359C27.6849 7.54402 26.529 6.45624 25.0434 6.5242H21.6263V4.1154C21.6263 2.87474 21.2355 1.96904 20.5062 1.42208C19.9239 0.985283 19.2363 0.887802 18.6928 0.901163C18.4203 0.907863 18.1814 0.94246 18.0059 0.977665C17.9181 0.995277 17.8458 1.01312 17.7926 1.02786C17.7527 1.03895 17.7178 1.04981 17.6961 1.05855C17.3743 1.14284 17.1752 1.42707 17.1752 1.74585V4.77725C17.1752 5.8467 16.5419 6.56936 15.8806 7.03439C15.2829 7.45472 14.6744 7.65565 14.5233 7.70357C14.2705 7.46392 13.9447 7.2906 13.547 7.2906H11.108C10.3559 7.2906 9.75358 7.89294 9.75358 8.645V16.4501C9.75358 17.2022 10.3559 17.8045 11.108 17.8045H13.547C13.8491 17.8045 14.1234 17.7139 14.3412 17.5577C14.8105 17.9936 15.4695 18.2576 16.1604 18.2576H23.6171C24.4891 18.2576 25.2274 18.0172 25.7759 17.564C26.3246 17.1106 26.6748 16.4509 26.7824 15.6284L27.7925 9.35795L27.7938 9.35005V9.34204V9.16777ZM19.6919 2.55987L19.6919 2.55995L19.6956 2.56233C20.0317 2.77607 20.2068 3.28367 20.2068 4.04589V7.18176C20.2068 7.58525 20.5301 7.90884 20.9339 7.90884H25.0805C25.7896 7.90884 26.3359 8.45292 26.3394 9.16094L25.4692 15.3913L25.4683 15.3912V15.4051V15.4349C25.4507 15.6077 25.4076 15.9365 25.1844 16.2236C24.9631 16.508 24.5508 16.7686 23.7563 16.7686H16.2996C15.5899 16.7686 15.0406 16.1879 15.0406 15.5096V9.07944C15.2443 9.0203 16.0873 8.74563 16.9162 8.138C17.8291 7.4688 18.7341 6.38808 18.7341 4.74272V2.32577C19.0261 2.30837 19.4016 2.35659 19.6919 2.55987ZM11.2775 16.3154V8.7102H13.4818V16.3154H11.2775Z" fill="currentColor"></path>
  </symbol>
  <symbol xmlns="http://www.w3.org/2000/svg" viewBox="0 0 28 28" id="ic_category5">
    <path fill-rule="evenodd" clip-rule="evenodd" d="M12.3385 0C5.52 0 0 5.69545 0 12.6602C0 16.3255 1.52829 19.6338 3.96781 21.9459V21.9472C4.82924 22.763 5.33558 23.8349 5.33558 24.9665V26.9863C5.33047 27.3467 5.52003 27.682 5.83166 27.8637C6.14329 28.0454 6.52871 28.0454 6.84034 27.8637C7.15197 27.682 7.34152 27.3467 7.33642 26.9863V24.9665C7.33642 23.2381 6.56148 21.6485 5.3447 20.4961C3.293 18.5516 2.00084 15.7715 2.00084 12.6602C2.00084 6.74489 6.63311 1.99898 12.3385 1.99898C17.7138 1.99898 22.1082 6.22082 22.6033 11.6555C22.621 11.8506 22.6958 12.0361 22.8182 12.1891L26.0122 16.178L26.0156 16.1818L26.0109 16.1832L23.3458 17.1137C22.9446 17.2542 22.6761 17.6325 22.6762 18.0572V22.2153C22.6762 22.6492 22.4039 23.0257 21.9923 23.1627L18.2707 24.4017C17.321 24.7175 16.6737 25.6139 16.6737 26.6141V26.9863C16.6686 27.3467 16.8581 27.682 17.1698 27.8637C17.4814 28.0454 17.8668 28.0454 18.1784 27.8637C18.4901 27.682 18.6796 27.3467 18.6745 26.9863V26.6141C18.6745 26.4668 18.7624 26.3457 18.9025 26.2991L22.6254 25.0589C23.8478 24.6521 24.677 23.5018 24.677 22.2153V18.7665L26.6727 18.0689C27.9472 17.6228 28.4193 15.9825 27.5754 14.9286L24.5325 11.1285C23.7907 4.88631 18.6451 0 12.3385 0ZM12.672 7.06021C12.1798 7.06021 11.7038 7.12212 11.2443 7.2294L11.1362 8.21197C11.0835 8.69439 10.8041 9.12379 10.3833 9.36633C9.96243 9.60887 9.45125 9.63705 9.00639 9.44181L8.10106 9.04358C7.44946 9.73722 6.95226 10.5756 6.66947 11.5098L7.47059 12.098C7.86275 12.3852 8.09455 12.8421 8.09455 13.3279C8.09455 13.8136 7.86275 14.2692 7.47059 14.5564L6.66947 15.1433C6.95226 16.0775 7.45012 16.9159 8.10106 17.6095L9.00639 17.2113C9.45125 17.0161 9.96243 17.0436 10.3833 17.2868C10.8041 17.5293 11.0835 17.9587 11.1362 18.4411L11.2443 19.4237C11.7032 19.5303 12.1798 19.5929 12.672 19.5929C13.1642 19.5929 13.6402 19.531 14.0997 19.4237L14.2078 18.4411C14.2605 17.9587 14.5399 17.5293 14.9607 17.2868C15.3816 17.0442 15.8927 17.0161 16.3376 17.2113L17.2429 17.6095C17.8945 16.9159 18.3917 16.0775 18.6745 15.1433L17.8734 14.5551C17.4812 14.2686 17.2494 13.8123 17.2494 13.3266C17.2494 12.8408 17.4812 12.3839 17.8734 12.0967L18.6745 11.5098C18.3917 10.5756 17.8939 9.73722 17.2429 9.04358L16.3376 9.44181C15.8927 9.63705 15.3816 9.60954 14.9607 9.36633C14.5399 9.12379 14.2605 8.69439 14.2078 8.21197L14.0997 7.2294C13.6408 7.12278 13.1642 7.06021 12.672 7.06021ZM14.8759 13.3266C14.8759 12.1105 13.889 11.1246 12.6718 11.1246C11.4546 11.1246 10.4678 12.1105 10.4678 13.3266C10.4678 14.5426 11.4546 15.5286 12.6718 15.5286C13.889 15.5286 14.8759 14.5426 14.8759 13.3266Z" fill="currentColor"></path>
  </symbol>
  <symbol xmlns="http://www.w3.org/2000/svg" viewBox="0 0 26 24" id="ic_category5_2">
    <path d="M16.7917 4.95835C16.7917 2.86427 15.0941 1.16669 13 1.16669C10.906 1.16669 9.20837 2.86427 9.20837 4.95835V12C9.20837 14.0941 10.906 15.7917 13 15.7917C15.0941 15.7917 16.7917 14.0941 16.7917 12V4.95835Z" stroke="currentColor" stroke-width="2" stroke-linejoin="round" fill="none"></path>
    <path d="M4.875 11.4584C4.875 15.9455 8.51283 19.5834 13 19.5834M13 19.5834C17.4872 19.5834 21.125 15.9455 21.125 11.4584M13 19.5834V22.8334" stroke="currentColor" stroke-width="2" stroke-linecap="round" stroke-linejoin="round" fill="none"></path>
  </symbol>
  <symbol xmlns="http://www.w3.org/2000/svg" viewBox="0 0 25 25" id="ic_category5_3">
    <path d="M10.6427 0.428345C7.86773 0.428345 5.60089 2.74201 5.60089 5.57456C5.60089 7.29932 6.43976 8.82892 7.72382 9.76433V7.44519C7.39101 6.90392 7.19314 6.26321 7.19314 5.57456C7.19314 3.62026 8.7282 2.05342 10.6429 2.05342C12.5575 2.05342 14.0926 3.62026 14.0926 5.57456C14.0926 6.26321 13.8947 6.90387 13.5619 7.44519V9.76433C14.8458 8.82892 15.6848 7.29932 15.6848 5.57456C15.6848 2.74211 13.4181 0.428345 10.643 0.428345H10.6427ZM10.6427 3.67854C9.3335 3.67854 8.25458 4.77985 8.25458 6.11613V12.7013C7.86013 12.1628 7.43107 11.7509 6.92778 11.6094C6.23775 11.4154 5.61951 11.6678 5.20304 11.9142C4.69976 12.3223 4.26016 12.6397 4.08356 13.2937C3.91771 13.911 4.04024 14.5745 4.33233 15.3422C5.73116 18.7631 7.42571 22.0796 9.51537 24.526C9.66345 24.6999 9.88668 24.8043 10.1125 24.8053H17.2772C17.4462 24.8053 17.6145 24.7475 17.75 24.6445C18.5811 24.0161 19.2017 22.9976 19.7235 21.8005C20.2453 20.6036 20.6386 19.217 20.843 17.8646C21.0473 16.5123 21.0627 15.1748 20.7601 14.0728C20.4524 12.952 19.6406 11.949 18.4298 11.8043C18.2247 11.7982 18.0039 11.8324 17.8246 11.8551C17.6685 11.549 17.4588 11.3033 17.2274 11.1357C16.773 10.8065 16.3243 10.7143 15.9337 10.721C15.6535 10.7257 15.399 10.823 15.1543 10.9579C15.0564 10.8385 14.9773 10.6864 14.8641 10.6023C14.4109 10.2664 13.9454 10.1791 13.562 10.1791C13.3806 10.1791 13.2059 10.2072 13.0314 10.2467V6.11631C13.0314 4.77979 11.9524 3.67872 10.6432 3.67872L10.6427 3.67854ZM10.6427 5.30376C11.0975 5.30376 11.4388 5.65215 11.4388 6.11637V11.8043C11.4376 12.1712 11.71 12.5198 12.0608 12.5999C12.4115 12.68 12.8043 12.4837 12.9563 12.1514C13.2458 11.7678 13.5469 11.7765 13.9266 11.9144C14.0216 11.9849 14.0924 12.0253 14.0924 12.3461C14.0913 12.7097 14.3595 13.0582 14.706 13.1417C15.0525 13.2252 15.4433 13.0355 15.6015 12.71C15.8085 12.2715 15.9434 12.325 16.3064 12.4646C16.4152 12.5434 16.4806 12.5825 16.4806 12.8878C16.4826 13.2003 16.6807 13.4995 16.9614 13.6243C17.2422 13.749 17.5903 13.6919 17.8155 13.4803C17.8244 13.4983 18.1699 13.384 18.2963 13.4295C18.7896 13.5056 19.031 13.793 19.2333 14.5213C19.443 15.2761 19.4563 16.4176 19.2748 17.6193C19.0932 18.8207 18.7206 20.0909 18.263 21.1404C17.8478 22.093 17.3479 22.8043 16.9362 23.1803H10.5097C9.02563 21.1287 5.60107 15.6104 5.61718 13.7343C5.83227 13.3733 6.16747 13.139 6.50457 13.1756C6.92679 13.3931 7.03174 13.6164 7.28402 14.0814L8.33726 16.2312C8.49571 16.5568 8.88627 16.7464 9.23275 16.6629C9.57924 16.5795 9.84749 16.2309 9.84635 15.8674V6.11663C9.84635 5.65242 10.1877 5.30402 10.6425 5.30402L10.6427 5.30376Z" fill="currentColor"></path>
  </symbol>
  <symbol xmlns="http://www.w3.org/2000/svg" viewBox="0 0 28 24" id="ic_category6">
    <path fill-rule="evenodd" clip-rule="evenodd" d="M3 0C1.355 0 0 1.355 0 3V19.6667C0 22.048 1.95204 24 4.33333 24H23.6667C26.048 24 28 22.048 28 19.6667V9.66667C28 8.02167 26.645 6.66667 25 6.66667H24V3C24 1.355 22.645 0 21 0H3ZM3 2H21C21.5643 2 22 2.43567 22 3V7.5026C21.9824 7.60996 21.9824 7.71947 22 7.82682V19C21.9949 19.3606 22.1844 19.6961 22.4959 19.8779C22.8074 20.0597 23.1926 20.0597 23.5041 19.8779C23.8156 19.6961 24.0051 19.3606 24 19V8.66667H25C25.5643 8.66667 26 9.10233 26 9.66667V19.6667C26 20.9667 24.9667 22 23.6667 22H4.33333C3.03329 22 2 20.9667 2 19.6667V3C2 2.43567 2.43567 2 3 2ZM4.12211 6.49587C4.30392 6.18438 4.63936 5.9949 5 6H19C19.3606 5.9949 19.6961 6.18438 19.8779 6.49587C20.0597 6.80737 20.0597 7.19263 19.8779 7.50413C19.6961 7.81562 19.3606 8.0051 19 8H5C4.63936 8.0051 4.30392 7.81562 4.12211 7.50413C3.94031 7.19263 3.94031 6.80737 4.12211 6.49587ZM5 11.3333C4.44774 11.3334 4.00006 11.7811 4 12.3333V17C4.00006 17.5523 4.44774 17.9999 5 18H9.66667C10.2189 17.9999 10.6666 17.5523 10.6667 17V12.3333C10.6666 11.7811 10.2189 11.3334 9.66667 11.3333H5ZM12.7888 11.8292C12.9706 11.5177 13.306 11.3282 13.6667 11.3333H19C19.3606 11.3282 19.6961 11.5177 19.8779 11.8292C20.0597 12.1407 20.0597 12.526 19.8779 12.8375C19.6961 13.149 19.3606 13.3384 19 13.3333H13.6667C13.306 13.3384 12.9706 13.149 12.7888 12.8375C12.607 12.526 12.607 12.1407 12.7888 11.8292ZM6 13.3333H8.66667V16H6V13.3333ZM12.7888 16.4959C12.9706 16.1844 13.306 15.9949 13.6667 16H19C19.3606 15.9949 19.6961 16.1844 19.8779 16.4959C20.0597 16.8074 20.0597 17.1926 19.8779 17.5041C19.6961 17.8156 19.3606 18.0051 19 18H13.6667C13.306 18.0051 12.9706 17.8156 12.7888 17.5041C12.607 17.1926 12.607 16.8074 12.7888 16.4959Z" fill="currentColor"></path>
  </symbol>
  <symbol xmlns="http://www.w3.org/2000/svg" viewBox="0 0 28 28" id="ic_category7">
    <path fill-rule="evenodd" clip-rule="evenodd" d="M0 14C0 6.2806 6.2806 0 14 0C21.7194 0 28 6.2806 28 14C28 21.7194 21.7194 28 14 28C11.7094 28 9.56952 27.3968 7.66035 26.4195L2.22305 27.9371C0.960348 28.2902 -0.287842 27.0421 0.065625 25.7797L1.5832 20.3465C0.603895 18.4358 0 16.2927 0 14ZM25.9 14C25.9 7.4156 20.5844 2.1 14 2.1C7.4156 2.1 2.1 7.4156 2.1 14C2.1 16.1032 2.64856 18.0694 3.60527 19.7846C3.74028 20.0265 3.77419 20.3121 3.69961 20.5789L2.25586 25.7469L7.42656 24.3045C7.69299 24.2303 7.97795 24.2642 8.21953 24.3988C9.93342 25.3536 11.8989 25.9 14 25.9C20.5844 25.9 25.9 20.5844 25.9 14ZM14 6.30137C11.6929 6.30137 9.8 8.19426 9.8 10.5014C9.79464 10.88 9.99359 11.2323 10.3207 11.4231C10.6477 11.614 11.0523 11.614 11.3793 11.4231C11.7064 11.2323 11.9054 10.88 11.9 10.5014C11.9 9.32947 12.8281 8.40137 14 8.40137C15.1719 8.40137 16.1 9.32947 16.1 10.5014C16.1 11.5285 15.7146 11.8852 15.0306 12.5182C14.9752 12.5694 14.9179 12.6225 14.8586 12.6779C14.0675 13.4173 12.95 14.566 12.95 16.4514C12.9446 16.83 13.1436 17.1823 13.4707 17.3731C13.7977 17.564 14.2023 17.564 14.5293 17.3731C14.8564 17.1823 15.0554 16.83 15.05 16.4514C15.05 15.364 15.4508 14.9921 16.145 14.3481C16.1924 14.3041 16.2412 14.2588 16.2914 14.2119C17.0753 13.4792 18.2 12.3555 18.2 10.5014C18.2 8.19426 16.3071 6.30137 14 6.30137ZM12.6 20.3014C12.6 19.5282 13.2268 18.9014 14 18.9014C14.7732 18.9014 15.4 19.5282 15.4 20.3014C15.4 21.0746 14.7732 21.7014 14 21.7014C13.2268 21.7014 12.6 21.0746 12.6 20.3014Z" fill="currentColor"></path>
  </symbol>
  <symbol xmlns="http://www.w3.org/2000/svg" viewBox="0 0 28 28" id="ic_category8">
    <path fill-rule="evenodd" clip-rule="evenodd" d="M14 0C6.2806 0 0 6.2806 0 14C0 16.2927 0.603895 18.4358 1.5832 20.3465L0.065625 25.7797C-0.287842 27.0421 0.960348 28.2902 2.22305 27.9371L7.66035 26.4195C9.56952 27.3968 11.7094 28 14 28C21.7194 28 28 21.7194 28 14C28 6.2806 21.7194 0 14 0ZM14 2.1C20.5844 2.1 25.9 7.4156 25.9 14C25.9 20.5844 20.5844 25.9 14 25.9C11.8989 25.9 9.93342 25.3536 8.21953 24.3988C7.97795 24.2642 7.69299 24.2303 7.42656 24.3045L2.25586 25.7469L3.69961 20.5789C3.77419 20.3121 3.74028 20.0265 3.60527 19.7846C2.64856 18.0694 2.1 16.1032 2.1 14C2.1 7.4156 7.4156 2.1 14 2.1ZM13.058 6.95898C13.2344 6.60058 13.5996 6.37383 14 6.37383C14.4004 6.37383 14.7656 6.60058 14.942 6.95898L16.6072 10.3332L20.3314 10.8746C20.7269 10.9327 21.0552 11.2095 21.1791 11.5896C21.3023 11.9697 21.1995 12.3863 20.9139 12.6656L18.2191 15.2934L18.8549 19.0025C18.9221 19.3973 18.7613 19.7941 18.4379 20.0293C18.2545 20.1616 18.0376 20.2303 17.8199 20.2303C17.6526 20.2303 17.4858 20.1905 17.3318 20.11L14 18.3572L10.6695 20.11C10.316 20.2955 9.88758 20.2638 9.56348 20.0293C9.24008 19.7941 9.07722 19.3966 9.14512 19.0025L9.78223 15.2934L7.08613 12.6656C6.79983 12.387 6.6977 11.9697 6.8209 11.5896C6.9448 11.2095 7.27375 10.932 7.66855 10.8746L11.3928 10.3332L13.058 6.95898Z" fill="currentColor"></path>
  </symbol>
  <symbol xmlns="http://www.w3.org/2000/svg" viewBox="0 0 28 23" id="ic_category9">
    <path fill-rule="evenodd" clip-rule="evenodd" d="M3.66667 0C1.65348 0 0 1.6778 0 3.72059V19.2794C0 21.3222 1.65348 23 3.66667 23H24.3333C26.3465 23 28 21.3222 28 19.2794V3.72059C28 1.6778 26.3465 0 24.3333 0H3.66667ZM3.66667 2.02941H24.3333C25.2655 2.02941 26 2.77473 26 3.72059V19.2794C26 20.2253 25.2655 20.9706 24.3333 20.9706H20.6667V16.5735C20.6667 15.2781 19.61 14.2059 18.3333 14.2059H9.66667C8.39003 14.2059 7.33333 15.2781 7.33333 16.5735V20.9706H3.66667C2.73452 20.9706 2 20.2253 2 19.2794V3.72059C2 2.77473 2.73452 2.02941 3.66667 2.02941ZM11.0026 6.02746C11.6859 5.24747 12.75 4.73529 14 4.73529C15.25 4.73529 16.3141 5.24747 16.9974 6.02746C17.6807 6.80744 18 7.8076 18 8.79412C18 9.78064 17.6807 10.7808 16.9974 11.5608C16.3141 12.3408 15.25 12.8529 14 12.8529C12.75 12.8529 11.6859 12.3408 11.0026 11.5608C10.3193 10.7808 10 9.78064 10 8.79412C10 7.8076 10.3193 6.80744 11.0026 6.02746ZM14 6.76471C14.75 6.76471 15.1859 7.01356 15.5026 7.37511C15.8193 7.73667 16 8.25858 16 8.79412C16 9.32966 15.8193 9.85156 15.5026 10.2131C15.1859 10.5747 14.75 10.8235 14 10.8235C13.25 10.8235 12.8141 10.5747 12.4974 10.2131C12.1807 9.85156 12 9.32966 12 8.79412C12 8.25858 12.1807 7.73667 12.4974 7.37511C12.8141 7.01356 13.25 6.76471 14 6.76471ZM18.3335 16.2353H9.66683C9.47013 16.2353 9.3335 16.3739 9.3335 16.5735V20.9706H18.6668V16.5735C18.6668 16.3739 18.5302 16.2353 18.3335 16.2353Z" fill="currentColor"></path>
  </symbol>
  <symbol xmlns="http://www.w3.org/2000/svg" viewBox="0 0 28 13" id="ic_category10">
    <path fill-rule="evenodd" clip-rule="evenodd" d="M6.3913 0C2.87213 0 0 2.92095 0 6.49994C0 9.94359 2.67967 12.7131 6.01562 12.9225C6.13406 12.975 6.2621 13.0014 6.3913 12.9999H21.6087C21.7388 13.0014 21.8677 12.9746 21.9868 12.9213C25.3215 12.7105 28 9.94269 28 6.49994C28 2.92095 25.1279 0 21.6087 0C18.0895 0 15.2174 2.92095 15.2174 6.49994C15.2174 8.32193 15.972 9.9604 17.1671 11.1428H10.8329C12.028 9.9604 12.7826 8.32193 12.7826 6.49994C12.7826 2.92095 9.91048 0 6.3913 0ZM6.3913 1.85713C8.92378 1.85713 10.9565 3.92442 10.9565 6.49994C10.9565 9.07546 8.92378 11.1428 6.3913 11.1428C3.85883 11.1428 1.82609 9.07546 1.82609 6.49994C1.82609 3.92442 3.85883 1.85713 6.3913 1.85713ZM26.1739 6.49994C26.1739 3.92442 24.1412 1.85713 21.6087 1.85713C19.0762 1.85713 17.0435 3.92442 17.0435 6.49994C17.0435 9.07546 19.0762 11.1428 21.6087 11.1428C24.1412 11.1428 26.1739 9.07546 26.1739 6.49994Z" fill="currentColor"></path>
  </symbol>
  <symbol xmlns="http://www.w3.org/2000/svg" viewBox="0 0 28 19" id="ic_category11">
    <path fill-rule="evenodd" clip-rule="evenodd" d="M4.78168 0C3.56425 0 2.55657 1.00386 2.55657 2.21666V14.2499C2.55657 15.4627 3.56425 16.4666 4.78168 16.4666H23.2183C24.4357 16.4666 25.4434 15.4627 25.4434 14.2499V2.21666C25.4434 1.00386 24.4357 0 23.2183 0H4.78168ZM4.78168 1.89999H23.2183C23.4059 1.89999 23.5362 2.02979 23.5362 2.21666V14.2499C23.5362 14.4368 23.4059 14.5666 23.2183 14.5666H4.78168C4.5941 14.5666 4.46381 14.4368 4.46381 14.2499V2.21666C4.46381 2.02979 4.5941 1.89999 4.78168 1.89999ZM6.53579 4.27107C6.70917 3.97515 7.02905 3.79515 7.37296 3.79999H11.8232C12.1671 3.79515 12.487 3.97515 12.6604 4.27107C12.8337 4.56699 12.8337 4.93298 12.6604 5.22891C12.487 5.52483 12.1671 5.70483 11.8232 5.69998H7.37296C7.02905 5.70483 6.70917 5.52483 6.53579 5.22891C6.36242 4.93298 6.36242 4.56699 6.53579 4.27107ZM16.2734 3.79999C15.9294 3.79515 15.6096 3.97515 15.4362 4.27107C15.2628 4.56699 15.2628 4.93298 15.4362 5.22891C15.6096 5.52483 15.9294 5.70483 16.2734 5.69998H20.7236C21.0675 5.70483 21.3874 5.52483 21.5607 5.22891C21.7341 4.93298 21.7341 4.56699 21.5607 4.27107C21.3874 3.97515 21.0675 3.79515 20.7236 3.79999H16.2734ZM6.53579 7.43769C6.70917 7.14177 7.02905 6.96177 7.37296 6.96662H11.8232C12.1671 6.96177 12.487 7.14177 12.6604 7.43769C12.8337 7.73362 12.8337 8.09961 12.6604 8.39553C12.487 8.69145 12.1671 8.87145 11.8232 8.86661H7.37296C7.02905 8.87145 6.70917 8.69145 6.53579 8.39553C6.36242 8.09961 6.36242 7.73362 6.53579 7.43769ZM16.2734 6.96662C15.9294 6.96177 15.6096 7.14177 15.4362 7.43769C15.2628 7.73362 15.2628 8.09961 15.4362 8.39553C15.6096 8.69145 15.9294 8.87145 16.2734 8.86661H20.7236C21.0675 8.87145 21.3874 8.69145 21.5607 8.39553C21.7341 8.09961 21.7341 7.73362 21.5607 7.43769C21.3874 7.14177 21.0675 6.96177 20.7236 6.96662H16.2734ZM6.53579 10.6044C6.70917 10.3084 7.02905 10.1284 7.37296 10.1333H11.8232C12.1671 10.1284 12.487 10.3084 12.6604 10.6044C12.8337 10.9003 12.8337 11.2663 12.6604 11.5622C12.487 11.8581 12.1671 12.0381 11.8232 12.0333H7.37296C7.02905 12.0381 6.70917 11.8581 6.53579 11.5622C6.36242 11.2663 6.36242 10.9003 6.53579 10.6044ZM16.2734 10.1333C15.9294 10.1284 15.6096 10.3084 15.4362 10.6044C15.2628 10.9003 15.2628 11.2663 15.4362 11.5622C15.6096 11.8581 15.9294 12.0381 16.2734 12.0333H18.8163C19.1602 12.0381 19.4801 11.8581 19.6535 11.5622C19.8269 11.2663 19.8269 10.9003 19.6535 10.6044C19.4801 10.3084 19.1602 10.1284 18.8163 10.1333H16.2734ZM0.130031 17.571C0.303405 17.2751 0.623292 17.0951 0.967201 17.0999H27.0328C27.3767 17.0951 27.6966 17.2751 27.87 17.571C28.0433 17.8669 28.0433 18.2329 27.87 18.5288C27.6966 18.8247 27.3767 19.0048 27.0328 18.9999H0.967201C0.623292 19.0048 0.303405 18.8247 0.130031 18.5288C-0.0433435 18.2329 -0.0433435 17.8669 0.130031 17.571Z" fill="currentColor"></path>
  </symbol>
  <symbol xmlns="http://www.w3.org/2000/svg" viewBox="0 0 28 27" id="ic_category12">
    <path fill-rule="evenodd" clip-rule="evenodd" d="M6.02865 7.22944C6.36798 3.18753 9.81333 0 14 0C18.1867 0 21.632 3.18753 21.9714 7.22944H22.3333C25.458 7.22944 28 9.73542 28 12.8158C28 14.6948 27.0515 16.3567 25.6042 17.3702C25.8588 16.7787 26 16.1276 26 15.4447C26 14.9492 25.9245 14.4714 25.7865 14.0199C25.9225 13.6426 26 13.2391 26 12.8158C26 10.8231 24.3553 9.2011 22.3333 9.2011H20.9831C20.7091 9.2011 20.4484 9.09079 20.2604 8.8956C20.0711 8.70172 19.9717 8.43852 19.9844 8.16906L19.9922 8.03171L19.9944 8.00117C19.9972 7.96297 20 7.92508 20 7.88666C20 4.62487 17.308 1.97166 14 1.97166C10.692 1.97166 8 4.62487 8 7.88666C8 7.92507 8.00279 7.96295 8.00561 8.00113L8.00781 8.03171L8.01562 8.16906C8.02829 8.43852 7.92825 8.70106 7.73958 8.8956C7.55092 9.09079 7.29026 9.2011 7.01693 9.2011H5.66667C3.64467 9.2011 2 10.8231 2 12.8158C2 14.8085 3.64467 16.4305 5.66667 16.4305H7.43359C7.58426 17.1601 7.90184 17.8285 8.33984 18.4022H5.66667C2.542 18.4022 0 15.8962 0 12.8158C0 9.73542 2.542 7.22944 5.66667 7.22944H6.02865ZM9.58577 12.9827C10.2135 12.2865 11.1943 11.83 12.3332 11.83C13.4721 11.83 14.4528 12.2865 15.0806 12.9827C15.7083 13.6789 15.9998 14.5684 15.9998 15.4447C15.9998 16.321 15.7083 17.2105 15.0806 17.9067C14.4528 18.6029 13.4721 19.0594 12.3332 19.0594C11.1943 19.0594 10.2135 18.6029 9.58577 17.9067C8.95806 17.2105 8.6665 16.321 8.6665 15.4447C8.6665 14.5684 8.95806 13.6789 9.58577 12.9827ZM21.0002 11.83C19.8613 11.83 18.8805 12.2865 18.2528 12.9827C17.625 13.6789 17.3335 14.5684 17.3335 15.4447C17.3335 16.321 17.625 17.2105 18.2528 17.9067C18.8805 18.6029 19.8613 19.0594 21.0002 19.0594C22.1391 19.0594 23.1198 18.6029 23.7476 17.9067C24.3753 17.2105 24.6668 16.321 24.6668 15.4447C24.6668 14.5684 24.3753 13.6789 23.7476 12.9827C23.1198 12.2865 22.1391 11.83 21.0002 11.83ZM13.5858 14.292C13.3246 14.0024 12.9721 13.8017 12.3332 13.8017C11.6943 13.8017 11.3417 14.0024 11.0806 14.292C10.8194 14.5817 10.6665 15.0066 10.6665 15.4447C10.6665 15.8829 10.8194 16.3078 11.0806 16.5974C11.3417 16.8871 11.6943 17.0878 12.3332 17.0878C12.9721 17.0878 13.3246 16.8871 13.5858 16.5974C13.8469 16.3078 13.9998 15.8829 13.9998 15.4447C13.9998 15.0066 13.8469 14.5817 13.5858 14.292ZM21.0002 13.8017C21.6391 13.8017 21.9916 14.0024 22.2528 14.292C22.5139 14.5817 22.6668 15.0066 22.6668 15.4447C22.6668 15.8829 22.5139 16.3078 22.2528 16.5974C21.9916 16.8871 21.6391 17.0878 21.0002 17.0878C20.3613 17.0878 20.0087 16.8871 19.7476 16.5974C19.4864 16.3078 19.3335 15.8829 19.3335 15.4447C19.3335 15.0066 19.4864 14.5817 19.7476 14.292C20.0087 14.0024 20.3613 13.8017 21.0002 13.8017ZM6.6665 22.3943C6.6665 21.2803 7.67711 20.3739 8.91911 20.3739H14.7524C14.2978 20.924 14.017 21.6022 14.005 22.3455H8.91911C8.76377 22.3455 8.67275 22.4124 8.65609 22.4367L8.6652 23.6882C8.6652 24.1489 10.1052 25.0283 12.3605 25.0283C13.0585 25.0283 13.6666 24.939 14.1899 24.8088C14.4073 25.4529 14.8116 26.0315 15.3696 26.5263C14.5063 26.8267 13.4838 27 12.3618 27C9.11515 27 6.6665 25.5771 6.6665 23.6882V22.3943ZM17.5861 20.3739C16.3441 20.3739 15.3335 21.2803 15.3335 22.3943V23.6882C15.3335 25.5771 17.7821 27 21.0288 27C24.2748 27 26.7222 25.5771 26.7228 23.6882V22.3943C26.7228 21.2803 25.7122 20.3739 24.4702 20.3739H17.5861ZM24.4699 22.3455H17.5858C17.4304 22.3455 17.3388 22.4123 17.3228 22.4367L17.3332 23.6882C17.3332 24.1489 18.7725 25.0283 21.0285 25.0283C23.2845 25.0283 24.7225 24.1489 24.7225 23.6882V22.3943C24.72 22.4012 24.7056 22.396 24.6804 22.3868C24.6386 22.3716 24.5671 22.3455 24.4699 22.3455Z" fill="currentColor"></path>
  </symbol>
  <symbol xmlns="http://www.w3.org/2000/svg" viewBox="0 0 28 29" id="ic_category13">
    <path fill-rule="evenodd" clip-rule="evenodd" d="M10.684 0.389404C11.7421 0.144586 12.8505 0 14 0C15.1495 0 16.2588 0.145113 17.3174 0.39082C17.7686 0.496137 18.104 0.872875 18.1546 1.33105L18.3867 3.43525C18.4626 4.12479 18.863 4.73487 19.4673 5.08208C20.0704 5.4286 20.8023 5.4684 21.4407 5.1897L23.3855 4.33867C23.8101 4.15239 24.3066 4.25285 24.6242 4.58931C26.135 6.1912 27.2945 8.13234 27.953 10.2973C28.0874 10.7389 27.9271 11.2168 27.5529 11.4896L25.8287 12.7456C25.2657 13.1563 24.9346 13.8057 24.9346 14.5C24.9346 15.1943 25.2657 15.8437 25.8287 16.2544L27.5529 17.5104C27.9271 17.7832 28.0874 18.2611 27.953 18.7027C27.2945 20.8677 26.135 22.8088 24.6242 24.4107C24.3066 24.7471 23.8101 24.8476 23.3855 24.6613L21.4407 23.8103C20.8023 23.5316 20.0704 23.5714 19.4673 23.9179C18.863 24.2651 18.4626 24.8752 18.3867 25.5647L18.1546 27.6689C18.1044 28.1281 17.7682 28.5056 17.316 28.6106C16.2579 28.8554 15.1495 29 14 29C12.8505 29 11.7412 28.8549 10.6826 28.6092C10.2314 28.5039 9.89596 28.1271 9.84542 27.6689L9.61334 25.5647C9.53744 24.8752 9.13695 24.2651 8.53269 23.9179C7.92923 23.5712 7.19655 23.531 6.55792 23.8103L4.61446 24.6613C4.18991 24.8476 3.69338 24.7471 3.37577 24.4107C1.86399 22.8086 0.705398 20.8674 0.0469818 18.7027C-0.0874418 18.2611 0.072919 17.7832 0.447063 17.5104L2.17126 16.2544C2.73429 15.8437 3.06539 15.1943 3.06539 14.5C3.06539 13.806 2.73428 13.1572 2.17126 12.7456L0.447063 11.4881C0.072919 11.2153 -0.0874418 10.7374 0.0469818 10.2958C0.705468 8.13092 1.86498 6.1912 3.37577 4.58931C3.69304 4.25236 4.18962 4.15132 4.61446 4.33726L6.55792 5.18828H6.55934C7.19767 5.46698 7.92964 5.4286 8.53269 5.08208C9.13695 4.73487 9.53744 4.12479 9.61334 3.43525L9.84542 1.33105C9.89558 0.87193 10.2318 0.494376 10.684 0.389404ZM15.966 2.40212C15.3191 2.28856 14.6722 2.175 14 2.175C13.3309 2.175 12.6862 2.28793 12.042 2.40077L11.9241 2.42139L11.7874 3.67173C11.6359 5.04845 10.8312 6.27294 9.62616 6.96538C8.42031 7.65827 6.95221 7.73652 5.67802 7.1792L4.52334 6.67368C3.63505 7.73418 2.9315 8.93094 2.44035 10.2435L3.46547 10.9911C4.58728 11.8105 5.25231 13.115 5.25231 14.5C5.25231 15.885 4.58782 17.1886 3.46547 18.0075L2.44035 18.7551C2.93122 20.0672 3.63397 21.2648 4.52191 22.3249L5.67802 21.8194C6.95221 21.2621 8.42031 21.3417 9.62616 22.0346C10.8312 22.7271 11.6359 23.9516 11.7874 25.3283L11.9241 26.5786L12.034 26.5979C12.6809 26.7114 13.3278 26.825 14 26.825C14.6691 26.825 15.3138 26.7121 15.958 26.5992L15.9581 26.5992L16.0759 26.5786L16.2126 25.3283C16.3641 23.9516 17.1688 22.7271 18.3738 22.0346C19.5797 21.3417 21.0478 21.2621 22.322 21.8194L23.4781 22.3249C24.3659 21.2647 25.0687 20.0671 25.5596 18.7551L24.5345 18.0075C23.4122 17.1886 22.7477 15.885 22.7477 14.5C22.7477 13.115 23.4122 11.8114 24.5345 10.9925L25.5596 10.2449C25.0687 8.93286 24.3659 7.73532 23.4781 6.6751L22.322 7.18062C21.0478 7.73793 19.5797 7.65827 18.3738 6.96538C17.1688 6.27294 16.3641 5.04845 16.2126 3.67173L16.0759 2.42139L15.966 2.40212ZM13.9998 8.7C10.7919 8.7 8.16797 11.3096 8.16797 14.5C8.16797 17.6904 10.7919 20.3 13.9998 20.3C17.2076 20.3 19.8316 17.6904 19.8316 14.5C19.8316 11.3096 17.2076 8.7 13.9998 8.7ZM17.6447 14.5C17.6447 12.4851 16.0258 10.875 13.9999 10.875C11.9739 10.875 10.355 12.4851 10.355 14.5C10.355 16.5149 11.9739 18.125 13.9999 18.125C16.0258 18.125 17.6447 16.5149 17.6447 14.5Z" fill="currentColor"></path>
  </symbol>
  <symbol xmlns="http://www.w3.org/2000/svg" viewBox="0 0 28 23" id="ic_category14">
    <path fill-rule="evenodd" clip-rule="evenodd" d="M11.8548 0.920898C12.3479 0.363932 13.125 0 14 0C14.875 0 15.6521 0.363932 16.1452 0.920898C16.6384 1.47786 16.8636 2.18287 16.8636 2.875C16.8636 3.56713 16.6384 4.27214 16.1452 4.8291C15.9663 5.03122 15.7401 5.19635 15.4952 5.33946L18.3278 9.71061L22.7065 5.71381C22.4136 5.23546 22.2727 4.69136 22.2727 4.15278C22.2727 3.46065 22.498 2.75564 22.9911 2.19868C23.4842 1.64171 24.2614 1.27778 25.1364 1.27778C26.0114 1.27778 26.7885 1.64171 27.2816 2.19868C27.7747 2.75564 28 3.46065 28 4.15278C28 4.84491 27.7747 5.54991 27.2816 6.10688C26.8929 6.54595 26.3263 6.8612 25.6758 6.97662L23.5455 17.6655V20.7639C23.5455 21.9969 22.5464 23 21.3182 23H6.68182C5.45364 23 4.45455 21.9969 4.45455 20.7639V17.6655L2.32422 6.97662C1.67367 6.8612 1.10714 6.54595 0.718395 6.10688C0.225271 5.54991 0 4.84491 0 4.15278C0 3.46065 0.225271 2.75564 0.718395 2.19868C1.21152 1.64171 1.98864 1.27778 2.86364 1.27778C3.73864 1.27778 4.51575 1.64171 5.00888 2.19868C5.502 2.75564 5.72727 3.46065 5.72727 4.15278C5.72727 4.69136 5.58637 5.23546 5.2935 5.71381L9.67223 9.71061L12.5048 5.33946C12.2599 5.19635 12.0337 5.03122 11.8548 4.8291C11.3616 4.27214 11.1364 3.56713 11.1364 2.875C11.1364 2.18287 11.3616 1.47786 11.8548 0.920898ZM14.7184 2.19368C14.5752 2.0319 14.3977 1.91667 14 1.91667C13.6023 1.91667 13.4248 2.0319 13.2816 2.19368C13.1384 2.35547 13.0455 2.6088 13.0455 2.875C13.0455 3.1412 13.1384 3.39453 13.2816 3.55631C13.4248 3.7181 13.6023 3.83333 14 3.83333C14.3977 3.83333 14.5752 3.7181 14.7184 3.55631C14.8616 3.39453 14.9545 3.1412 14.9545 2.875C14.9545 2.6088 14.8616 2.35547 14.7184 2.19368ZM2.86364 3.19444C3.26136 3.19444 3.43879 3.30968 3.58203 3.47146C3.72527 3.63325 3.81818 3.88657 3.81818 4.15278C3.81818 4.41898 3.72527 4.67231 3.58203 4.83409C3.43879 4.99588 3.26136 5.11111 2.86364 5.11111C2.46591 5.11111 2.28848 4.99588 2.14524 4.83409C2.002 4.67231 1.90909 4.41898 1.90909 4.15278C1.90909 3.88657 2.002 3.63325 2.14524 3.47146C2.28848 3.30968 2.46591 3.19444 2.86364 3.19444ZM25.8546 3.47146C25.7113 3.30968 25.5339 3.19444 25.1362 3.19444C24.7385 3.19444 24.561 3.30968 24.4178 3.47146C24.2746 3.63324 24.1816 3.88657 24.1816 4.15278C24.1816 4.41898 24.2746 4.67231 24.4178 4.83409C24.561 4.99587 24.7385 5.11111 25.1362 5.11111C25.5339 5.11111 25.7113 4.99587 25.8546 4.83409C25.9978 4.67231 26.0907 4.41898 26.0907 4.15278C26.0907 3.88657 25.9978 3.63324 25.8546 3.47146ZM13.9998 6.54861L17.3345 11.7046C17.4872 11.941 17.7356 12.0943 18.0156 12.1327C18.2956 12.171 18.5688 12.081 18.7788 11.8893L23.6286 7.46203L21.8089 16.6111H6.1907L4.37109 7.46203L9.22088 11.8893C9.43088 12.081 9.71038 12.171 9.98402 12.1327C10.264 12.0943 10.5124 11.941 10.6651 11.7046L13.9998 6.54861ZM21.6365 18.5278H6.36377V20.7639C6.36377 20.9428 6.50377 21.0833 6.68195 21.0833H21.3183C21.4965 21.0833 21.6365 20.9428 21.6365 20.7639V18.5278Z" fill="currentColor"></path>
  </symbol>
  <symbol xmlns="http://www.w3.org/2000/svg" viewBox="0 0 30 29" id="ic_close">
    <path d="M7.93791 19.7899C7.67966 20.0409 7.57678 20.4118 7.66867 20.7604C7.76055 21.109 8.03297 21.3815 8.38161 21.4734C8.73025 21.5652 9.10108 21.4624 9.35212 21.2041L22.0619 8.49429C22.3202 8.24325 22.4231 7.87241 22.3312 7.52377C22.2393 7.17514 21.9669 6.90272 21.6182 6.81083C21.2696 6.71894 20.8988 6.82182 20.6477 7.08007L7.93791 19.7899Z" fill="currentColor"></path>
    <path d="M9.35232 7.08012C9.10128 6.82187 8.73044 6.71899 8.3818 6.81088C8.03317 6.90277 7.76075 7.17519 7.66886 7.52382C7.57697 7.87246 7.67985 8.24329 7.9381 8.49433L20.6479 21.2042C20.899 21.4624 21.2698 21.5653 21.6184 21.4734C21.9671 21.3815 22.2395 21.1091 22.3314 20.7605C22.4233 20.4118 22.3204 20.041 22.0621 19.7899L9.35232 7.08012Z" fill="currentColor"></path>
  </symbol>
  <symbol xmlns="http://www.w3.org/2000/svg" viewBox="0 0 16 16" id="ic_edit">
    <path d="M9.02704 5.29269L2.28571 12.0232V14.4599H4.7238L11.4624 7.72943L9.02704 5.29269ZM12.0327 2.28571L14.4708 4.7238L12.6151 6.57946L10.177 4.14272L12.0327 2.28571Z" fill="currentColor"></path>
  </symbol>
  <symbol xmlns="http://www.w3.org/2000/svg" viewBox="0 0 12 13" id="ic_error">
    <path fill-rule="evenodd" clip-rule="evenodd" d="M0 6.03247C0 2.71867 2.6862 0.0324707 6 0.0324707C9.3138 0.0324707 12 2.71867 12 6.03247C12 9.34627 9.3138 12.0325 6 12.0325C2.6862 12.0325 0 9.34627 0 6.03247ZM8.2683 8.30047C8.4441 8.12467 8.4441 7.83997 8.2683 7.66417L6.6363 6.03247L8.268 4.40077C8.4438 4.22497 8.4438 3.94027 8.268 3.76447C8.0922 3.58867 7.8075 3.58867 7.6317 3.76447L6 5.39617L4.3683 3.76447C4.1925 3.58867 3.9078 3.58867 3.732 3.76447C3.5562 3.94027 3.5562 4.22497 3.732 4.40077L5.3637 6.03247L3.7317 7.66447C3.5559 7.84027 3.5559 8.12497 3.7317 8.30077C3.8196 8.38867 3.9348 8.43247 4.05 8.43247C4.1652 8.43247 4.2804 8.38867 4.3683 8.30047L6 6.66877L7.6317 8.30077C7.7196 8.38867 7.8348 8.43247 7.95 8.43247C8.0652 8.43247 8.1804 8.38867 8.2683 8.30047Z" fill="currentColor"></path>
  </symbol>
  <symbol xmlns="http://www.w3.org/2000/svg" viewBox="0 0 28 28" id="ic_feedback">
    <path d="M24.745 19.3713L24.7443 19.3729C24.3758 20.2439 23.5051 20.8451 22.5716 20.8451H12.0486C11.8514 20.8451 11.651 20.9229 11.5255 21.0479C11.5253 21.0482 11.5251 21.0484 11.5248 21.0486L7.131 25.2747V21.6072C7.131 21.2037 6.80772 20.8801 6.40392 20.8801H3.9996C2.73062 20.8801 1.69527 19.8447 1.69527 18.5758V7.25133C1.69527 5.98234 2.73067 4.947 3.9996 4.947H15.3937C15.7972 4.947 16.1208 4.62372 16.1208 4.21992C16.1208 3.81643 15.7975 3.49285 15.3937 3.49285H3.9996C1.92339 3.49285 0.206152 5.21009 0.206152 7.2863V18.6107C0.206152 20.6869 1.92339 22.4042 3.9996 22.4042H5.64182V27.0096L5.64175 27.0096V27.0778C5.64175 27.35 5.7978 27.6473 6.13129 27.6974C6.17791 27.7174 6.22858 27.726 6.27165 27.7303C6.3202 27.7352 6.36789 27.7352 6.40211 27.7352H6.40359C6.60071 27.7352 6.80102 27.6574 6.9265 27.5324C6.92678 27.5322 6.92707 27.5319 6.92735 27.5316L12.3674 22.3342H22.5716C24.1108 22.3342 25.5413 21.3685 26.1141 19.9368L26.1141 19.9367C26.2753 19.5334 26.071 19.1308 25.7133 18.9719L25.7133 18.9719L25.7098 18.9705C25.3064 18.8093 24.9039 19.0136 24.745 19.3713ZM27.7938 9.16777V8.95767L27.7865 8.96359C27.6849 7.54402 26.529 6.45624 25.0434 6.5242H21.6263V4.1154C21.6263 2.87474 21.2355 1.96904 20.5062 1.42208C19.9239 0.985283 19.2363 0.887802 18.6928 0.901163C18.4203 0.907863 18.1814 0.94246 18.0059 0.977665C17.9181 0.995277 17.8458 1.01312 17.7926 1.02786C17.7527 1.03895 17.7178 1.04981 17.6961 1.05855C17.3743 1.14284 17.1752 1.42707 17.1752 1.74585V4.77725C17.1752 5.8467 16.5419 6.56936 15.8806 7.03439C15.2829 7.45472 14.6744 7.65565 14.5233 7.70357C14.2705 7.46392 13.9447 7.2906 13.547 7.2906H11.108C10.3559 7.2906 9.75358 7.89294 9.75358 8.645V16.4501C9.75358 17.2022 10.3559 17.8045 11.108 17.8045H13.547C13.8491 17.8045 14.1234 17.7139 14.3412 17.5577C14.8105 17.9936 15.4695 18.2576 16.1604 18.2576H23.6171C24.4891 18.2576 25.2274 18.0172 25.7759 17.564C26.3246 17.1106 26.6748 16.4509 26.7824 15.6284L27.7925 9.35795L27.7938 9.35005V9.34204V9.16777ZM19.6919 2.55987L19.6919 2.55995L19.6956 2.56233C20.0317 2.77607 20.2068 3.28367 20.2068 4.04589V7.18176C20.2068 7.58525 20.5301 7.90884 20.9339 7.90884H25.0805C25.7896 7.90884 26.3359 8.45292 26.3394 9.16094L25.4692 15.3913L25.4683 15.3912V15.4051V15.4349C25.4507 15.6077 25.4076 15.9365 25.1844 16.2236C24.9631 16.508 24.5508 16.7686 23.7563 16.7686H16.2996C15.5899 16.7686 15.0406 16.1879 15.0406 15.5096V9.07944C15.2443 9.0203 16.0873 8.74563 16.9162 8.138C17.8291 7.4688 18.7341 6.38808 18.7341 4.74272V2.32577C19.0261 2.30837 19.4016 2.35659 19.6919 2.55987ZM11.2775 16.3154V8.7102H13.4818V16.3154H11.2775Z" fill="currentColor"></path>
  </symbol>
  <symbol xmlns="http://www.w3.org/2000/svg" viewBox="0 0 26 28" id="ic_file">
    <path d="M8.92714 28C6.61203 28 4.29618 27.1289 2.53467 25.386C-0.97342 21.9149 -0.777199 16.0508 2.73388 12.5827L13.2731 2.1723C14.5146 0.945988 16.1425 0.121323 17.8951 0.0137264C19.9088 -0.110084 21.8232 0.607721 23.2341 2.0028C24.6464 3.39714 25.3731 5.28819 25.2478 7.27652C25.1388 9.00692 24.3032 10.6157 23.0625 11.842L12.7128 22.0652C11.8787 22.8891 10.7961 23.4618 9.62174 23.5635C8.17434 23.6888 6.79259 23.1891 5.78164 22.1898C4.76995 21.1912 4.2641 19.8263 4.39094 18.3966C4.4939 17.2366 5.0736 16.1665 5.90773 15.3434L13.1216 8.21837C13.2671 8.07466 13.5036 8.07466 13.6491 8.21837L14.7041 9.26044C14.8496 9.40414 14.8496 9.63776 14.7041 9.78147L7.43123 16.9654C7.04551 17.3464 6.75006 17.824 6.65381 18.3546C6.49863 19.2065 6.76647 20.0363 7.36483 20.6274C8.33698 21.5877 10.0306 21.5891 11.005 20.6274L21.6524 10.1102C22.5365 9.23464 23.0237 8.07318 23.0237 6.83729C23.0237 5.6014 22.5365 4.43921 21.6516 3.5659C20.7668 2.6926 19.5902 2.21062 18.3398 2.21062C17.0893 2.21062 15.9127 2.69186 15.0279 3.5659L4.12309 14.3367C1.47449 16.9536 1.47449 21.2111 4.12309 23.828C6.77319 26.4443 11.0833 26.4435 13.7319 23.828L24.3084 13.3808C24.4539 13.2371 24.6904 13.2371 24.8359 13.3808L25.8909 14.4229C26.0364 14.5666 26.0364 14.8002 25.8909 14.9439L15.3144 25.3911C13.5544 27.1304 11.2407 28 8.92714 28Z" fill="currentColor"></path>
  </symbol>
  <symbol xmlns="http://www.w3.org/2000/svg" viewBox="0 0 16 16" id="ic_forward">
    <path fill-rule="evenodd" clip-rule="evenodd" d="M0 8C0 3.59124 3.5912 0 7.99992 0C9.06119 0 10.0782 0.207956 11.0069 0.585156V0.584375C12.1996 1.06823 13.2421 1.83497 14.0663 2.79531L14.067 2.78125C14.0761 2.33971 14.4411 1.98898 14.8827 1.99766C15.0991 2.00185 15.3045 2.09353 15.4522 2.25177C15.5998 2.41002 15.677 2.62134 15.6663 2.8375L15.5967 4.82812C15.581 5.26943 15.2107 5.61455 14.7694 5.59922L12.7788 5.52969C12.4871 5.52856 12.2191 5.36875 12.0794 5.11262C11.9398 4.8565 11.9506 4.54466 12.1077 4.29883C12.2647 4.053 12.5432 3.91215 12.8342 3.93125L12.9389 3.93516C12.2666 3.11947 11.3987 2.47018 10.4054 2.06719H10.4046C9.66296 1.76599 8.85303 1.6 7.99992 1.6C4.45592 1.6 1.59998 4.45596 1.59998 8C1.59998 11.544 4.45592 14.4 7.99992 14.4C11.5439 14.4 14.3999 11.544 14.3999 8C14.3958 7.71149 14.5474 7.44313 14.7966 7.29769C15.0457 7.15225 15.354 7.15225 15.6031 7.29769C15.8523 7.44313 16.0039 7.71149 15.9998 8C15.9998 12.4088 12.4086 16 7.99992 16C3.5912 16 0 12.4088 0 8ZM4.14609 5.98691C4.21529 5.90651 4.85681 5.2002 5.9492 5.2002C7.03879 5.2002 7.79996 5.8994 7.79996 6.9002C7.79996 7.3058 7.66783 7.64974 7.45543 7.91895C7.80263 8.21375 7.99996 8.6194 7.99996 9.10019C7.99996 10.117 7.21749 10.8002 6.0531 10.8002C4.85991 10.8002 4.21569 10.0939 4.14609 10.0135C3.92929 9.76268 3.95701 9.38418 4.20781 9.16738C4.45821 8.95098 4.83748 8.9783 5.05468 9.2291C5.06228 9.2375 5.40511 9.60019 6.0531 9.60019C6.3319 9.60019 6.79997 9.535 6.79997 9.10019C6.79997 8.7054 6.17158 8.60019 5.79998 8.60019C5.46838 8.60019 5.19999 8.33179 5.19999 8.0002C5.19999 7.6686 5.46838 7.4002 5.79998 7.4002H6.00857C6.16217 7.4002 6.59997 7.3086 6.59997 6.9002C6.59997 6.5682 6.38079 6.4002 5.9492 6.4002C5.3988 6.4002 5.06321 6.76156 5.04921 6.77676C4.82761 7.01916 4.44988 7.04201 4.20468 6.82441C3.95949 6.60681 3.93129 6.23531 4.14609 5.98691ZM10.3999 5.2002C9.29709 5.2002 8.3999 6.0974 8.3999 7.2002V8.8002C8.3999 9.903 9.29709 10.8002 10.3999 10.8002C11.5027 10.8002 12.3999 9.903 12.3999 8.8002V7.2002C12.3999 6.0974 11.5027 5.2002 10.3999 5.2002ZM11.1998 7.20039C11.1998 6.75919 10.841 6.40039 10.3998 6.40039C9.95865 6.40039 9.59985 6.75919 9.59985 7.20039V8.80039C9.59985 9.24159 9.95865 9.60039 10.3998 9.60039C10.841 9.60039 11.1998 9.24159 11.1998 8.80039V7.20039Z" fill="currentColor"></path>
  </symbol>
  <symbol xmlns="http://www.w3.org/2000/svg" viewBox="0 0 16 21" id="ic_lock">
    <path fill-rule="evenodd" clip-rule="evenodd" d="M8 0C4.67619 0 2 2.67619 2 6V7C0.9 7 0 7.9 0 9V19C0 20.1 0.9 21 2 21H14C15.1 21 16 20.1 16 19V9C16 7.9 15.1 7 14 7V6C14 2.67619 11.3238 0 8 0ZM7.99993 2C10.2761 2 11.9999 3.72381 11.9999 6V7H3.99993V6C3.99993 3.72381 5.72374 2 7.99993 2ZM10 14C10 12.9 9.1 12 8 12C6.9 12 6 12.9 6 14C6 15.1 6.9 16 8 16C9.1 16 10 15.1 10 14Z" fill="currentColor"></path>
  </symbol>
  <symbol xmlns="http://www.w3.org/2000/svg" viewBox="0 0 13 18" id="ic_lock2">
    <path fill-rule="evenodd" clip-rule="evenodd" d="M6.5 0C4.26367 0 2.4375 1.75898 2.4375 3.91304V6.84783H2.45496C0.961551 7.99622 0 9.76073 0 11.7391C0 15.19 2.91736 18 6.5 18C10.0826 18 13 15.19 13 11.7391C13 9.76073 12.0384 7.99622 10.545 6.84783H10.5625V3.91304C10.5625 1.75898 8.73633 0 6.5 0ZM6.5 1.17391C8.07754 1.17391 9.34375 2.39354 9.34375 3.91304V6.11872C8.48328 5.71288 7.52046 5.47826 6.5 5.47826C5.47954 5.47826 4.51672 5.71288 3.65625 6.11872V3.91304C3.65625 2.39354 4.92246 1.17391 6.5 1.17391ZM8.53125 10.9565C8.53125 9.87613 7.62166 9 6.5 9C5.37834 9 4.46875 9.87613 4.46875 10.9565C4.46875 11.7583 4.97087 12.4459 5.6875 12.748V14.087C5.6875 14.5193 6.05109 14.8696 6.5 14.8696C6.94891 14.8696 7.3125 14.5193 7.3125 14.087V12.748C8.02913 12.4459 8.53125 11.7583 8.53125 10.9565Z" fill="currentColor"></path>
  </symbol>
  <symbol xmlns="http://www.w3.org/2000/svg" viewBox="0 0 24 24" id="ic_logout">
    <path d="M19 21H10C8.89543 21 8 20.1046 8 19V15H10V19H19V5H10V9H8V5C8 3.89543 8.89543 3 10 3H19C20.1046 3 21 3.89543 21 5V19C21 20.1046 20.1046 21 19 21ZM12 16V13H3V11H12V8L17 12L12 16Z" fill="currentColor"></path>
  </symbol>
  <symbol xmlns="http://www.w3.org/2000/svg" viewBox="0 0 20 14" id="ic_menu">
    <path fill-rule="evenodd" clip-rule="evenodd" d="M1.0128 0.000100432C0.652677 -0.00499986 0.317709 0.184476 0.136161 0.495973C-0.045387 0.807471 -0.045387 1.19273 0.136161 1.50423C0.317709 1.81573 0.652677 2.0052 1.0128 2.0001H18.9872C19.3473 2.0052 19.6823 1.81573 19.8638 1.50423C20.0454 1.19273 20.0454 0.807471 19.8638 0.495973C19.6823 0.184476 19.3473 -0.00499986 18.9872 0.000100432H1.0128ZM1.0128 6.0001C0.652677 5.995 0.317709 6.18448 0.136161 6.49597C-0.045387 6.80747 -0.045387 7.19273 0.136161 7.50423C0.317709 7.81573 0.652677 8.0052 1.0128 8.0001H11.2667C11.6268 8.0052 11.9618 7.81573 12.1433 7.50423C12.3249 7.19273 12.3249 6.80747 12.1433 6.49597C11.9618 6.18448 11.6268 5.995 11.2667 6.0001H1.0128ZM0.136161 12.496C0.317709 12.1845 0.652677 11.995 1.0128 12.0001H18.9872C19.3473 11.995 19.6823 12.1845 19.8638 12.496C20.0454 12.8075 20.0454 13.1927 19.8638 13.5042C19.6823 13.8157 19.3473 14.0052 18.9872 14.0001H1.0128C0.652677 14.0052 0.317709 13.8157 0.136161 13.5042C-0.045387 13.1927 -0.045387 12.8075 0.136161 12.496Z" fill="currentColor"></path>
  </symbol>
  <symbol xmlns="http://www.w3.org/2000/svg" viewBox="0 0 24 36" id="ic_mic">
    <path fill-rule="evenodd" clip-rule="evenodd" d="M5.00016 7.54429C5.00016 3.694 8.14798 0.547607 12 0.547607C15.8521 0.547607 18.9999 3.694 18.9999 7.54429V19.2054C18.9999 23.0557 15.8521 26.2021 12 26.2021C8.14798 26.2021 5.00016 23.0557 5.00016 19.2054V7.54429ZM0.333588 16.4845C0.324354 15.841 0.838279 15.3117 1.482 15.3017C1.79747 15.2967 2.10149 15.4197 2.32473 15.6426C2.54797 15.8654 2.6714 16.1692 2.66687 16.4845V19.2054C2.66687 24.3224 6.75412 28.4485 11.8542 28.5267C11.8965 28.5214 11.9391 28.5183 11.9818 28.5176C12.0341 28.5171 12.0864 28.5202 12.1383 28.5267C17.2419 28.4525 21.3332 24.3249 21.3332 19.2054V16.4845C21.3272 16.0639 21.5483 15.6728 21.9117 15.4608C22.2751 15.2488 22.7245 15.2488 23.0879 15.4608C23.4514 15.6728 23.6724 16.0639 23.6665 16.4845V19.2054C23.6665 25.2385 19.0512 30.2198 13.1667 30.8073V34.3649C13.1726 34.7854 12.9516 35.1766 12.5882 35.3886C12.2247 35.6006 11.7753 35.6006 11.4119 35.3886C11.0485 35.1766 10.8274 34.7854 10.8334 34.3649V30.8073C4.94886 30.2198 0.333588 25.2385 0.333588 19.2054V16.4845Z" fill="currentColor"></path>
  </symbol>
  <symbol xmlns="http://www.w3.org/2000/svg" viewBox="0 0 40 41" id="ic_next_arrow">
    <path fill-rule="evenodd" clip-rule="evenodd" d="M0 20.9673C0 9.93929 8.972 0.967285 20 0.967285C31.028 0.967285 40 9.93929 40 20.9673C40 31.9953 31.028 40.9673 20 40.9673C8.972 40.9673 0 31.9953 0 20.9673ZM22.561 28.0283L28.561 22.0283C29.146 21.4423 29.146 20.4923 28.561 19.9083L22.561 13.9083C21.975 13.3223 21.026 13.3223 20.44 13.9083C19.854 14.4933 19.854 15.4443 20.44 16.0293L23.879 19.4683H12.5C11.671 19.4683 11 20.1393 11 20.9683C11 21.7973 11.671 22.4683 12.5 22.4683H23.878L20.439 25.9073C19.853 26.4923 19.853 27.4433 20.439 28.0283C20.732 28.3213 21.116 28.4673 21.5 28.4673C21.884 28.4673 22.268 28.3213 22.561 28.0283Z" fill="currentColor"></path>
  </symbol>
  <symbol xmlns="http://www.w3.org/2000/svg" viewBox="0 0 20 21" id="ic_nitifications">
    <path fill-rule="evenodd" clip-rule="evenodd" d="M1.94579 17.2307H18.0559C18.7254 17.2307 19.3393 16.9044 19.6977 16.3562C20.0561 15.808 20.1 15.1306 19.8072 14.5281L18.3348 11.6564V8.07664C18.3348 5.84682 17.4181 3.77101 15.7524 2.23151C14.0884 0.693091 11.9054 -0.0925413 9.59915 0.00869167C5.15103 0.211696 1.66688 3.84531 1.66688 8.2818V11.6564L0.186206 14.5437C-0.0988155 15.1306 -0.0543676 15.8075 0.303993 16.3557C0.662354 16.9038 1.27629 17.2307 1.94579 17.2307ZM10.0008 21C8.35183 21 6.98284 19.8331 6.71726 18.3076H13.2844C13.0183 19.8331 11.6499 21 10.0008 21Z" fill="currentColor"></path>
  </symbol>
  <symbol xmlns="http://www.w3.org/2000/svg" viewBox="0 0 11 15" id="ic_pause">
    <rect x="7" width="4" height="15" rx="1" fill="currentColor"></rect>
    <rect width="4" height="15" rx="1" fill="currentColor"></rect>
  </symbol>
  <symbol xmlns="http://www.w3.org/2000/svg" viewBox="0 0 11 15" id="ic_play">
    <path d="M0 14.1767V0.822493C0 0.166916 0.689282 -0.224842 1.20458 0.139564L10.6547 6.81709C11.1151 7.14179 11.1151 7.85825 10.6547 8.18383L1.20458 14.8614C0.689282 15.224 0 14.8331 0 14.1767Z" fill="currentColor"></path>
  </symbol>
  <symbol xmlns="http://www.w3.org/2000/svg" viewBox="0 0 28 22" id="ic_quote">
    <path fill-rule="evenodd" clip-rule="evenodd" d="M8.06353 0.0848227C8.18955 0.0324925 8.32423 0.00384839 8.46074 0.000340743C8.9986 -0.0129 9.46791 0.361095 9.5724 0.886217C9.67689 1.41134 9.3862 1.93504 8.88384 2.12671C8.88384 2.12671 7.31801 2.73373 5.63138 4.70555C4.51106 6.01529 3.37307 7.90714 2.73294 10.6221C3.77321 9.91537 5.0035 9.53712 6.26316 9.53677C9.72221 9.53677 12.5263 12.3268 12.5263 15.7684C12.5263 19.21 9.72221 22 6.26316 22C4.56753 21.9978 2.94524 21.3117 1.76704 20.0984C0.588836 18.8851 -0.04459 17.2484 0.0115169 15.5622C0.00375178 15.5091 -9.62162e-05 15.4555 1.82704e-06 15.4018C1.82704e-06 9.48356 1.95 5.61471 3.94758 3.27938C5.94515 0.944057 8.06353 0.0848227 8.06353 0.0848227ZM23.5372 0.0848227C23.6632 0.0324925 23.7979 0.00384839 23.9344 0.000340743C24.4723 -0.0129 24.9416 0.361095 25.0461 0.886217C25.1506 1.41134 24.8599 1.93504 24.3575 2.12671C24.3575 2.12671 22.7917 2.73373 21.1051 4.70555C19.9847 6.01529 18.8468 7.90714 18.2066 10.6221C19.2469 9.91537 20.4772 9.53712 21.7368 9.53677C25.1959 9.53677 28 12.3268 28 15.7684C28 19.21 25.1959 22 21.7368 22C20.0412 21.9978 18.4189 21.3117 17.2407 20.0984C16.0625 18.8851 15.4291 17.2484 15.4852 15.5622C15.4774 15.5091 15.4736 15.4555 15.4737 15.4018C15.4737 9.48356 17.4237 5.61471 19.4213 3.27938C21.4188 0.944057 23.5372 0.0848227 23.5372 0.0848227Z" fill="currentColor"></path>
  </symbol>
  <symbol xmlns="http://www.w3.org/2000/svg" viewBox="0 0 16 17" id="ic_rewind">
    <path fill-rule="evenodd" clip-rule="evenodd" d="M4.23441 0.239604C4.37931 0.0922763 4.57657 0.00646375 4.78441 0.000345764C5.11423 -0.00926333 5.4162 0.182149 5.5448 0.482351C5.6734 0.782552 5.60226 1.12996 5.36565 1.35717L4.73128 1.98387L5.36565 2.61057C5.57464 2.8088 5.65883 3.10315 5.58574 3.38011C5.51266 3.65708 5.29372 3.87337 5.01337 3.94557C4.73302 4.01777 4.43507 3.9346 4.23441 3.72814L3.03443 2.54265C2.72213 2.23401 2.72213 1.73373 3.03443 1.42509L4.23441 0.239604ZM7.43438 0.239604C7.57928 0.0922763 7.77654 0.00646375 7.98438 0.000345764C8.28231 -0.00811721 8.56031 0.147734 8.70574 0.404758C8.85117 0.661783 8.83993 0.977364 8.67656 1.22365C12.77 1.56471 15.9999 4.96661 15.9999 9.09677C15.9999 13.4522 12.4087 17 8 17C3.59128 17 8.03447e-05 13.4522 8.03447e-05 9.09677C-0.00399985 8.81176 0.147579 8.54665 0.396775 8.40296C0.64597 8.25927 0.954175 8.25927 1.20337 8.40296C1.45257 8.54665 1.60414 8.81176 1.60006 9.09677C1.60006 12.5979 4.456 15.4194 8 15.4194C11.544 15.4194 14.3999 12.5979 14.3999 9.09677C14.3999 5.83646 11.9228 3.1679 8.72031 2.81587C8.90249 3.16426 8.79857 3.59193 8.47616 3.82066C8.15375 4.04939 7.71033 4.01001 7.43438 3.72814L6.23439 2.54265C5.9221 2.23401 5.9221 1.73373 6.23439 1.42509L7.43438 0.239604ZM8.33823 6.33105C8.04983 6.33105 7.80199 6.53403 7.74839 6.8142L7.41011 8.59243C7.37731 8.7659 7.42424 8.94466 7.53824 9.0802C7.65183 9.21574 7.82155 9.29476 7.99995 9.29476H9.29994C9.68593 9.29476 9.99993 9.60497 9.99993 9.9863C9.99993 10.5577 9.56513 10.6778 9.19994 10.6778C8.55394 10.6778 8.19392 10.4259 8.16792 10.4069C7.90912 10.2082 7.536 10.2513 7.33121 10.5049C7.12401 10.7606 7.16616 11.1338 7.42496 11.3385C7.49295 11.3922 8.12075 11.8633 9.19994 11.8633C10.3775 11.8633 11.1995 11.0916 11.1991 9.9863C11.1991 8.95137 10.3467 8.10928 9.29916 8.10928H8.72338L8.83588 7.51654H10.3999C10.7315 7.51654 10.9999 7.25139 10.9999 6.9238C10.9999 6.59621 10.7315 6.33105 10.3999 6.33105H8.33823ZM5.61004 6.36093C5.65574 6.34582 5.70291 6.33705 5.74989 6.33315C5.89083 6.32142 6.03306 6.35916 6.15066 6.44274C6.30706 6.55418 6.39988 6.7331 6.39988 6.92357V11.2703C6.39988 11.5979 6.13148 11.8631 5.79989 11.8631C5.46829 11.8631 5.19989 11.5979 5.19989 11.2703V7.74554L4.78974 7.88137C4.47614 7.98609 4.13517 7.81688 4.03037 7.50628C3.92557 7.19568 4.09566 6.85962 4.41006 6.75609L5.61004 6.36093Z" fill="currentColor"></path>
  </symbol>
  <symbol xmlns="http://www.w3.org/2000/svg" viewBox="0 0 40 40" id="ic_repeat">
    <path d="M20.0002 0C14.5569 0 9.61209 2.18732 6.0002 5.72852V4C6.00759 3.45974 5.7961 2.93948 5.41386 2.55761C5.03162 2.17573 4.51115 1.96475 3.9709 1.97266C2.8671 1.98883 1.9851 2.89619 2.0002 4V11C2.00154 12.0725 2.8485 12.9531 3.92012 12.9961C4.21668 13.0661 4.52531 13.0674 4.82247 13H11.0002C11.7215 13.0102 12.3924 12.6312 12.756 12.0083C13.1196 11.3853 13.1196 10.6147 12.756 9.99175C12.3924 9.36875 11.7215 8.9898 11.0002 9H8.38887C11.3014 5.92457 15.4158 4 20.0002 4C28.8603 4 36.0002 11.1399 36.0002 20C36.0002 28.8601 28.8603 36 20.0002 36C11.1401 36 4.0002 28.8601 4.0002 20C4.0104 19.2787 3.63145 18.6078 3.00846 18.2442C2.38546 17.8806 1.61494 17.8806 0.991947 18.2442C0.368951 18.6078 -0.00999971 19.2787 0.000200864 20C0.000200864 31.0219 8.97829 40 20.0002 40C31.0221 40 40.0002 31.0219 40.0002 20C40.0002 8.97809 31.0221 0 20.0002 0Z" fill="currentColor"></path>
  </symbol>
  <symbol xmlns="http://www.w3.org/2000/svg" viewBox="0 0 24 24" id="ic_settings">
    <path d="M21.7345 7.78549C21.4226 7.06344 20.5627 6.51537 19.8208 6.56731C19.0789 6.61935 18.2211 6.32928 17.8412 5.9672C17.4613 5.60512 17.1533 4.74902 17.1814 4.00296C17.2095 3.25691 16.6356 2.42088 15.9018 2.12884C15.168 1.83682 14.1762 2.0588 13.6883 2.6169C13.2004 3.17486 12.3826 3.58495 11.8626 3.60099C11.3428 3.61703 10.515 3.22691 10.0111 2.68291C9.50716 2.13877 8.50542 1.94482 7.78361 2.25679C7.06181 2.56875 6.5099 3.42893 6.56192 4.17109C6.61394 4.91322 6.32397 5.77132 5.96202 6.15137C5.60007 6.53141 4.74425 6.83545 4.00249 6.81144C3.26062 6.78731 2.4208 7.35937 2.12887 8.09342C1.8368 8.82762 2.05885 9.81963 2.61661 10.3077C3.17453 10.7957 3.58444 11.6139 3.6005 12.132C3.61657 12.65 3.22866 13.4801 2.68274 13.9842C2.13683 14.4883 1.94087 15.4884 2.25677 16.2145C2.57269 16.9406 3.42851 17.4886 4.17041 17.4366C4.91229 17.3845 5.7701 17.6746 6.15001 18.0367C6.52993 18.3988 6.83793 19.2508 6.80987 19.9969C6.7818 20.7429 7.35578 21.5791 8.09155 21.8712C8.82742 22.1632 9.81716 21.9412 10.3051 21.3831C10.7929 20.825 11.6088 20.4149 12.1286 20.407C12.6484 20.399 13.4762 20.7851 13.9842 21.3291C14.4921 21.8731 15.4918 22.0592 16.2137 21.7471C16.9356 21.4351 17.4875 20.579 17.4354 19.8369C17.3834 19.0947 17.6734 18.2366 18.0353 17.8566C18.3972 17.4767 19.251 17.1727 19.9968 17.2026C20.7426 17.2326 21.5785 16.6565 21.8705 15.9205C22.1624 15.1844 21.9444 14.1943 21.3826 13.7022C20.8206 13.2101 20.4108 12.402 20.3967 11.8759C20.3828 11.3499 20.7707 10.5279 21.3185 10.0238C21.5916 9.72769 21.7755 9.36061 21.849 8.96463C21.9226 8.56851 21.8829 8.15986 21.7345 7.78549ZM13.5363 15.5743C12.5888 15.9841 11.5173 16.0006 10.5577 15.6198C9.59811 15.2392 8.82903 14.4925 8.41979 13.5446C8.01056 12.5965 7.99467 11.5247 8.37572 10.5649C8.75663 9.60508 9.50325 8.83617 10.4513 8.42719C11.3992 8.01825 12.4707 8.00289 13.4298 8.3845C14.3892 8.76597 15.1576 9.51327 15.5658 10.4616C15.9741 11.4081 15.9904 12.478 15.611 13.4366C15.2316 14.395 14.4876 15.1637 13.5422 15.5743L13.5363 15.5743Z" fill="currentColor"></path>
  </symbol>
  <symbol xmlns="http://www.w3.org/2000/svg" viewBox="0 0 8 13" id="ic_sort">
    <circle cx="1.5" cy="1.5" r="1.5" fill="currentColor"></circle>
    <circle cx="6.5" cy="1.5" r="1.5" fill="currentColor"></circle>
    <circle cx="6.5" cy="6.5" r="1.5" fill="currentColor"></circle>
    <circle cx="6.5" cy="11.5" r="1.5" fill="currentColor"></circle>
    <circle cx="1.5" cy="6.5" r="1.5" fill="currentColor"></circle>
    <circle cx="1.5" cy="11.5" r="1.5" fill="currentColor"></circle>
  </symbol>
  <symbol xmlns="http://www.w3.org/2000/svg" viewBox="0 0 12 12" id="ic_success">
    <path fill-rule="evenodd" clip-rule="evenodd" d="M0 6C0 2.6916 2.6916 0 6 0C9.3084 0 12 2.6916 12 6C12 9.3084 9.3084 12 6 12C2.6916 12 0 9.3084 0 6ZM5.5683 7.9683L8.5683 4.9683C8.7438 4.7925 8.7435 4.5078 8.5677 4.332C8.3919 4.1562 8.1072 4.1562 7.9314 4.332L5.2497 7.0137L4.068 5.832C3.8922 5.6562 3.6075 5.6562 3.4317 5.832C3.2559 6.0078 3.2559 6.2925 3.4317 6.4683L4.9317 7.9683C5.0196 8.0562 5.1348 8.1 5.25 8.1C5.3652 8.1 5.4804 8.0562 5.5683 7.9683Z" fill="currentColor"></path>
  </symbol>
  <symbol xmlns="http://www.w3.org/2000/svg" viewBox="0 0 29 37" id="ic_text_file">
    <path d="M28.1492 7.93419L20.4408 0.22583C20.2963 0.0812988 20.1006 0 19.8958 0H3.70829C2.0086 0 0.625 1.3828 0.625 3.08336V33.9167C0.625 35.6172 2.0086 37 3.70836 37H25.2917C26.9914 37 28.375 35.6172 28.375 33.9166V8.47914C28.375 8.27441 28.2937 8.07872 28.1492 7.93419ZM20.6666 2.6317L25.7433 7.70836H22.2083C21.3576 7.70836 20.6666 7.01656 20.6666 6.16671V2.6317ZM26.8334 33.9166C26.8334 34.7665 26.1423 35.4583 25.2917 35.4583H3.70836C2.85772 35.4583 2.16671 34.7665 2.16671 33.9166V3.08336C2.16671 2.23351 2.85779 1.54171 3.70836 1.54171H19.125V6.16671C19.125 7.8672 20.5086 9.25 22.2084 9.25H26.8334V33.9166Z" fill="currentColor"></path>
    <path d="M22.9791 21.5835H6.02086C5.59478 21.5835 5.25 21.9283 5.25 22.3544C5.25 22.7804 5.59478 23.1252 6.02086 23.1252H22.9792C23.4053 23.1252 23.7501 22.7804 23.7501 22.3544C23.75 21.9283 23.4052 21.5835 22.9791 21.5835Z" fill="currentColor"></path>
    <path d="M22.9791 16.9585H6.02086C5.59478 16.9585 5.25 17.3033 5.25 17.7294C5.25 18.1554 5.59478 18.5002 6.02086 18.5002H22.9792C23.4053 18.5002 23.7501 18.1554 23.7501 17.7294C23.75 17.3033 23.4052 16.9585 22.9791 16.9585Z" fill="currentColor"></path>
    <path d="M15.2291 26.2085L6.02086 26.2085C5.59478 26.2085 5.25 26.5533 5.25 26.9794C5.25 27.4054 5.59478 27.7502 6.02086 27.7502H15.2291C15.6552 27.7502 16 27.4054 16 26.9794C15.9999 26.5533 15.6551 26.2085 15.2291 26.2085Z" fill="currentColor"></path>
    <path d="M5.25 13.1044C5.25 13.5304 5.59478 13.8752 6.02086 13.8752H22.9793C23.4053 13.8752 23.7501 13.5304 23.7501 13.1044C23.7501 12.6783 23.4053 12.3335 22.9793 12.3335L6.02086 12.3335C5.59478 12.3336 5.25 12.6783 5.25 13.1044Z" fill="currentColor"></path>
  </symbol>
  <symbol xmlns="http://www.w3.org/2000/svg" viewBox="0 0 24 24" id="ic_user">
    <path d="M12 12C14.21 12 16 10.21 16 8C16 5.79 14.21 4 12 4C9.79 4 8 5.79 8 8C8 10.21 9.79 12 12 12ZM12 14C9.33 14 4 15.34 4 18V20H20V18C20 15.34 14.67 14 12 14Z" fill="currentColor"></path>
  </symbol>
  <symbol xmlns="http://www.w3.org/2000/svg" viewBox="0 0 48 31" id="ic_upload">
    <path fill-rule="evenodd" clip-rule="evenodd" d="M38.42 13H39C43.96 13 48 17.04 48 22C48 26.96 43.96 31 39 31H9C4.04 31 0 26.96 0 22C0 17.04 4.04 13 9 13H9.58C10.33 5.71 16.51 0 24 0C31.49 0 37.67 5.71 38.42 13ZM31.5 17C31.9 17 32.3 16.84 32.6 16.52C33.16 15.92 33.13 14.97 32.52 14.4L25.02 7.4C24.45 6.87 23.55 6.87 22.98 7.4L15.48 14.4C14.87 14.97 14.84 15.92 15.4 16.52C15.97 17.13 16.92 17.16 17.52 16.6L22.5 11.95V24.5C22.5 25.33 23.17 26 24 26C24.83 26 25.5 25.33 25.5 24.5V11.95L30.48 16.6C30.77 16.87 31.13 17 31.5 17Z" fill="currentColor"></path>
  </symbol>
  <symbol xmlns="http://www.w3.org/2000/svg" viewBox="0 0 50 50" id="ic_user2">
    <path d="M31.7291 26.3085H18.2712C12.2805 26.3085 7.80423 32.4275 7.80423 37.8973L7.80371 45H42.1961V37.8973C42.1961 32.4275 37.7199 26.3085 31.7286 26.3085H31.7291ZM39.2057 42.0093H10.7946V37.8971C10.7946 33.921 14.0604 29.2992 18.2712 29.2992H31.7291C35.9399 29.2992 39.2057 33.9215 39.2057 37.8971V42.0093Z" fill="currentColor"></path>
    <path d="M34.7197 14.7197C34.7197 9.36046 30.3593 5 25 5C19.6407 5 15.2803 9.36046 15.2803 14.7197C15.2803 20.079 19.6407 24.4394 25 24.4394C30.3593 24.4394 34.7197 20.079 34.7197 14.7197ZM18.2712 14.7197C18.2712 11.0091 21.2903 7.99104 24.9999 7.99104C28.71 7.99104 31.7285 11.0091 31.7285 14.7197C31.7285 18.4304 28.7095 21.4484 24.9999 21.4484C21.2897 21.4489 18.2712 18.4304 18.2712 14.7197Z" fill="currentColor"></path>
  </symbol>
  <symbol xmlns="http://www.w3.org/2000/svg" viewBox="0 0 20 20" id="ic_video_play">
    <path fill-rule="evenodd" clip-rule="evenodd" d="M0 9.50904C0 4.2572 4.2572 0 9.50904 0C14.7609 0 19.0181 4.2572 19.0181 9.50904C19.0181 14.7609 14.7609 19.0181 9.50904 19.0181C4.2572 19.0181 0 14.7609 0 9.50904ZM7.74001 5.86151C7.63446 5.80588 7.52027 5.77886 7.40663 5.77886C7.27969 5.77886 7.15253 5.813 7.0389 5.88194C6.82305 6.01221 6.69438 6.24098 6.69438 6.49297V12.5253C6.69438 12.7773 6.82305 13.006 7.0389 13.1363C7.15253 13.2048 7.27921 13.2394 7.40663 13.2394C7.52027 13.2394 7.63493 13.2119 7.74001 13.1567L13.4705 10.1406C13.7059 10.017 13.8512 9.77582 13.8512 9.51005C13.8517 9.24427 13.7059 9.0022 13.4705 8.87859L7.74001 5.86151Z" fill="currentColor"></path>
  </symbol>
  <symbol xmlns="http://www.w3.org/2000/svg" viewBox="0 0 24 24" id="ic_view">
    <path d="M12 5C4.36698 5 2.07298 11.617 2.05198 11.684L1.94598 12L2.05098 12.316C2.07298 12.383 4.36698 19 12 19C19.633 19 21.927 12.383 21.948 12.316L22.054 12L21.949 11.684C21.927 11.617 19.633 5 12 5ZM12 16C9.79398 16 7.99998 14.206 7.99998 12C7.99998 9.794 9.79398 8 12 8C14.206 8 16 9.794 16 12C16 14.206 14.206 16 12 16Z" fill="currentColor"></path>
    <path d="M12 5C4.36698 5 2.07298 11.617 2.05198 11.684L1.94598 12L2.05098 12.316C2.07298 12.383 4.36698 19 12 19C19.633 19 21.927 12.383 21.948 12.316L22.054 12L21.949 11.684C21.927 11.617 19.633 5 12 5ZM12 16C9.79398 16 7.99998 14.206 7.99998 12C7.99998 9.794 9.79398 8 12 8C14.206 8 16 9.794 16 12C16 14.206 14.206 16 12 16Z" fill="currentColor" fill-opacity="0.8"></path>
    <path d="M12 10C10.916 10 10 10.916 10 12C10 13.084 10.916 14 12 14C13.084 14 14 13.084 14 12C14 10.916 13.084 10 12 10Z" fill="currentColor"></path>
    <path d="M12 10C10.916 10 10 10.916 10 12C10 13.084 10.916 14 12 14C13.084 14 14 13.084 14 12C14 10.916 13.084 10 12 10Z" fill="currentColor" fill-opacity="0.8"></path>
  </symbol>
  <symbol xmlns="http://www.w3.org/2000/svg" viewBox="0 0 24 24" id="ic_view2">
    <path d="M8.073 12.194L4.212 8.33297C2.692 9.98997 2.116 11.65 2.106 11.684L2 12L2.105 12.316C2.127 12.383 4.421 19 12.054 19C12.983 19 13.829 18.898 14.606 18.727L11.86 15.981C10.8713 15.9325 9.93595 15.518 9.23598 14.818C8.53601 14.118 8.12147 13.1827 8.073 12.194ZM12.054 4.99997C10.199 4.99997 8.679 5.40397 7.412 5.99797L3.707 2.29297L2.293 3.70697L20.293 21.707L21.707 20.293L18.409 16.995C21.047 15.042 21.988 12.358 22.002 12.316L22.107 12L22.002 11.684C21.98 11.617 19.687 4.99997 12.054 4.99997ZM13.96 12.546C14.147 11.869 13.988 11.107 13.468 10.586C12.948 10.065 12.185 9.90697 11.508 10.094L10 8.58597C10.618 8.20595 11.3285 8.00322 12.054 7.99997C14.26 7.99997 16.054 9.79397 16.054 12C16.051 12.7253 15.8479 13.4357 15.467 14.053L13.96 12.546Z" fill="currentColor"></path>
    <path d="M8.073 12.194L4.212 8.33297C2.692 9.98997 2.116 11.65 2.106 11.684L2 12L2.105 12.316C2.127 12.383 4.421 19 12.054 19C12.983 19 13.829 18.898 14.606 18.727L11.86 15.981C10.8713 15.9325 9.93595 15.518 9.23598 14.818C8.53601 14.118 8.12147 13.1827 8.073 12.194ZM12.054 4.99997C10.199 4.99997 8.679 5.40397 7.412 5.99797L3.707 2.29297L2.293 3.70697L20.293 21.707L21.707 20.293L18.409 16.995C21.047 15.042 21.988 12.358 22.002 12.316L22.107 12L22.002 11.684C21.98 11.617 19.687 4.99997 12.054 4.99997ZM13.96 12.546C14.147 11.869 13.988 11.107 13.468 10.586C12.948 10.065 12.185 9.90697 11.508 10.094L10 8.58597C10.618 8.20595 11.3285 8.00322 12.054 7.99997C14.26 7.99997 16.054 9.79397 16.054 12C16.051 12.7253 15.8479 13.4357 15.467 14.053L13.96 12.546Z" fill="currentColor" fill-opacity="0.8"></path>
  </symbol>
  <symbol xmlns="http://www.w3.org/2000/svg" viewBox="0 0 20 21" id="ic_wallet">
    <path fill-rule="evenodd" clip-rule="evenodd" d="M5.26299 1.575C5.26299 0.705075 5.96983 0 6.84193 0C7.71404 0 8.42088 0.705075 8.42088 1.575C8.42088 2.03486 8.21988 2.44474 7.90484 2.73267C7.96129 3.84988 8.86448 4.725 9.99983 4.725C11.1355 4.725 12.0389 3.84935 12.0948 2.73164C11.7874 2.44375 11.5911 2.03437 11.5911 1.575C11.5911 0.705075 12.2814 0 13.1341 0C13.9867 0 14.6781 0.705075 14.6781 1.575C14.6781 2.25707 14.2507 2.83153 13.6563 3.05054C13.567 3.81168 13.2423 4.50201 12.7568 5.05005C15.2372 5.63053 17.4718 6.94623 19.2289 8.61738C19.5445 8.91753 19.5565 9.41609 19.2556 9.73096C18.9547 10.0458 18.4549 10.0578 18.1392 9.75762C16.0012 7.72414 13.0903 6.3 9.99983 6.3C6.90937 6.3 3.99845 7.72414 1.86044 9.75762C1.65625 9.95184 1.3637 10.0226 1.093 9.94332C0.822293 9.86401 0.614581 9.64665 0.548119 9.37314C0.481657 9.09963 0.566544 8.81153 0.770798 8.61738C2.52786 6.94623 4.76245 5.63053 7.24284 5.05005C6.75999 4.50496 6.43569 3.81914 6.3444 3.06284C5.71751 2.85418 5.26299 2.27053 5.26299 1.575ZM2.94202 10.8886C4.72821 9.18164 7.20858 7.875 10 7.875C12.7914 7.875 15.2718 9.18164 17.058 10.8886C18.8442 12.5956 20 14.6907 20 16.6031C20 17.3762 19.7611 18.118 19.2835 18.7124C18.806 19.3067 18.1234 19.7475 17.2821 20.0771C15.5994 20.7365 13.2308 21 10 21C6.76916 21 4.40061 20.7365 2.71793 20.0771C1.87659 19.7475 1.19403 19.3067 0.716488 18.7124C0.238946 18.118 0 17.3762 0 16.6031C0 14.6907 1.15583 12.5956 2.94202 10.8886Z" fill="currentColor"></path>
  </symbol>
  <symbol xmlns="http://www.w3.org/2000/svg" viewBox="0 0 16 16" id="symbol-enterFullscreen">
    <path fill-rule="evenodd" clip-rule="evenodd" d="M4.74074 1.77778H1.77778V4.74074C1.77778 5.23166 1.37981 5.62963 0.888889 5.62963C0.397969 5.62963 0 5.23166 0 4.74074V0.888889C0 0.397969 0.397969 0 0.888889 0H4.74074C5.23166 0 5.62963 0.397969 5.62963 0.888889C5.62963 1.37981 5.23166 1.77778 4.74074 1.77778ZM4.74074 13.9259H1.77778V10.963C1.77778 10.472 1.37981 10.0741 0.888889 10.0741C0.397969 10.0741 0 10.472 0 10.963V14.8148C0 15.3057 0.397969 15.7037 0.888889 15.7037H4.74074C5.23166 15.7037 5.62963 15.3057 5.62963 14.8148C5.62963 14.3239 5.23166 13.9259 4.74074 13.9259ZM13.9259 1.77778H10.963C10.472 1.77778 10.0741 1.37981 10.0741 0.888889C10.0741 0.397969 10.472 0 10.963 0H14.8148C15.3057 0 15.7037 0.397969 15.7037 0.888889V4.74074C15.7037 5.23166 15.3057 5.62963 14.8148 5.62963C14.3239 5.62963 13.9259 5.23166 13.9259 4.74074V1.77778ZM10.963 13.9259H13.9259V10.963C13.9259 10.472 14.3239 10.0741 14.8148 10.0741C15.3057 10.0741 15.7037 10.472 15.7037 10.963V14.8148C15.7037 15.3057 15.3057 15.7037 14.8148 15.7037H10.963C10.472 15.7037 10.0741 15.3057 10.0741 14.8148C10.0741 14.3239 10.472 13.9259 10.963 13.9259Z" fill="currentColor"></path>
  </symbol>
  <symbol xmlns="http://www.w3.org/2000/svg" viewBox="0 0 20 16" id="symbol-mute">
    <path fill-rule="evenodd" clip-rule="evenodd" d="M16.5593 15.9991C16.813 15.9883 17.0501 15.871 17.2139 15.6755C18.9829 13.5607 19.957 10.8712 19.9565 8.10264C19.9565 5.22521 18.9147 2.45645 17.0233 0.307252C16.8574 0.118915 16.6215 0.00764534 16.372 0.000501545C16.1093 -0.00794112 15.8802 0.0905566 15.7039 0.269368L15.585 0.389514C15.2474 0.73155 15.2313 1.27946 15.5486 1.64141C17.1133 3.42433 17.9754 5.719 17.9754 8.10264C17.9754 10.3943 17.1702 12.6223 15.7086 14.3766C15.4061 14.7399 15.4287 15.2765 15.7614 15.6121L15.8804 15.7322C16.0509 15.9043 16.2813 16 16.5213 16C16.5342 16 16.5469 15.9996 16.5593 15.9991ZM9.98427 14.2783C9.98427 14.6332 9.78114 14.9555 9.46325 15.1059C9.34034 15.1646 9.20864 15.193 9.0778 15.193C8.87059 15.193 8.66531 15.1211 8.49951 14.9823L3.54502 10.8389H0.906257C0.405831 10.8394 0 10.4296 0 9.92453V6.28054C0 5.77528 0.405831 5.36571 0.906257 5.36571H3.54523L8.49972 1.22231C8.77042 0.99587 9.14579 0.947595 9.46346 1.09913C9.78114 1.24958 9.98448 1.57214 9.98448 1.92673L9.98427 14.2783ZM13.467 12.8492C13.4449 12.8507 13.4237 12.8515 13.4018 12.8515C13.1624 12.8515 12.9316 12.7561 12.7611 12.5838L12.6399 12.461C12.322 12.1408 12.2847 11.6336 12.5524 11.2695C13.2311 10.346 13.5893 9.25128 13.5893 8.10286C13.5893 6.86763 13.1826 5.70904 12.413 4.7522C12.12 4.38852 12.147 3.86031 12.4754 3.5291L12.5964 3.40679C12.7774 3.22408 13.02 3.1245 13.2826 3.14031C13.5382 3.15329 13.777 3.27474 13.9391 3.47477C15.0067 4.79312 15.5706 6.39376 15.5706 8.10308C15.5706 9.69506 15.0719 11.2104 14.1281 12.4846C13.9705 12.697 13.7294 12.8303 13.467 12.8492Z" fill="currentColor"></path>
  </symbol>
  <symbol xmlns="http://www.w3.org/2000/svg" viewBox="0 0 12 13" id="symbol-play">
    <path fill-rule="evenodd" clip-rule="evenodd" d="M9.97082 3.97331C11.7041 5.16541 11.7041 7.72482 9.97083 8.91692L5.61541 11.9125C3.62495 13.2815 0.915342 11.8565 0.915342 9.4407V3.44953C0.915342 1.03373 3.62494 -0.391267 5.6154 0.977734L9.97082 3.97331Z" fill="currentColor"></path>
  </symbol>

  <symbol id="ic_comment" xmlns="http://www.w3.org/2000/svg">
    <g opacity="0.5">
    <path fill-rule="evenodd" clip-rule="evenodd" d="M0 5C0 2.24307 2.24307 0 5 0C7.75693 0 10 2.24307 10 5C10 7.75693 7.75693 10 5 10C4.18194 10 3.41768 9.78457 2.73584 9.43555L0.793945 9.97754C0.342982 10.1036 -0.102801 9.65788 0.0234375 9.20703L0.56543 7.2666C0.215677 6.5842 0 5.81883 0 5ZM9.25 5C9.25 2.64843 7.35157 0.75 5 0.75C2.64843 0.75 0.75 2.64843 0.75 5C0.75 5.75113 0.945913 6.45337 1.2876 7.06592C1.33582 7.15233 1.34793 7.2543 1.32129 7.34961L0.805664 9.19531L2.65234 8.68018C2.7475 8.65367 2.84927 8.66578 2.93555 8.71387C3.54765 9.05487 4.2496 9.25 5 9.25C7.35157 9.25 9.25 7.35157 9.25 5Z" fill="currentColor"/>
    <path fill-rule="evenodd" clip-rule="evenodd" d="M0 5C0 2.24307 2.24307 0 5 0C7.75693 0 10 2.24307 10 5C10 7.75693 7.75693 10 5 10C4.18194 10 3.41768 9.78457 2.73584 9.43555L0.793945 9.97754C0.342982 10.1036 -0.102801 9.65788 0.0234375 9.20703L0.56543 7.2666C0.215677 6.5842 0 5.81883 0 5ZM9.25 5C9.25 2.64843 7.35157 0.75 5 0.75C2.64843 0.75 0.75 2.64843 0.75 5C0.75 5.75113 0.945913 6.45337 1.2876 7.06592C1.33582 7.15233 1.34793 7.2543 1.32129 7.34961L0.805664 9.19531L2.65234 8.68018C2.7475 8.65367 2.84927 8.66578 2.93555 8.71387C3.54765 9.05487 4.2496 9.25 5 9.25C7.35157 9.25 9.25 7.35157 9.25 5Z" fill="currentColor" fill-opacity="0.8"/>
    </g>
  </symbol>

<symbol xmlns="http://www.w3.org/2000/svg" viewBox="0 0 11 15" id="symbol-pause">
    <rect x="7" width="4" height="15" rx="1" fill="currentColor"/>
  <rect width="4" height="15" rx="1" fill="currentColor"/>
  </symbol>

  <symbol id="ic_fixed" xmlns="http://www.w3.org/2000/svg">
    <path d="M9.82776 0.721345C9.89347 0.721227 9.95855 0.734061 10.0193 0.759113C10.08 0.784165 10.1352 0.820943 10.1818 0.867345L15.1318 5.81734C15.2255 5.91111 15.2782 6.03826 15.2782 6.17085C15.2782 6.30343 15.2255 6.43058 15.1318 6.52434C14.6518 7.00434 14.0598 7.11234 13.6288 7.11234C13.4518 7.11234 13.2938 7.09434 13.1688 7.07334L10.0348 10.2073C10.1173 10.5398 10.1708 10.8787 10.1948 11.2203C10.2408 11.9223 10.1628 12.9073 9.47476 13.5953C9.381 13.6891 9.25384 13.7417 9.12126 13.7417C8.98868 13.7417 8.86152 13.6891 8.76776 13.5953L5.93876 10.7673L2.75676 13.9493C2.56176 14.1443 1.53776 14.8513 1.34276 14.6563C1.14776 14.4613 1.85476 13.4363 2.04976 13.2423L5.23176 10.0603L2.40376 7.23134C2.31002 7.13758 2.25737 7.01043 2.25737 6.87784C2.25737 6.74526 2.31002 6.61811 2.40376 6.52434C3.09176 5.83634 4.07676 5.75734 4.77876 5.80434C5.12042 5.82828 5.45936 5.88182 5.79176 5.96434L8.92576 2.83134C8.8996 2.67906 8.88622 2.52486 8.88576 2.37034C8.88576 1.94034 8.99376 1.34834 9.47476 0.867345C9.56847 0.773876 9.69541 0.721373 9.82776 0.721345ZM9.94976 2.83334V2.83134V2.83334ZM9.94976 2.83134V2.83334C9.97864 2.92131 9.98252 3.01557 9.96098 3.10562C9.93944 3.19567 9.89332 3.27797 9.82776 3.34334L6.29276 6.87734C6.22708 6.94275 6.14451 6.9886 6.05427 7.00979C5.96404 7.03098 5.86969 7.02667 5.78176 6.99734H5.77976L5.76576 6.99334C5.67062 6.96485 5.57457 6.9395 5.47776 6.91735C5.2262 6.85866 4.97041 6.81988 4.71276 6.80134C4.29076 6.77334 3.87676 6.80934 3.53776 6.95134L9.04776 12.4603C9.18876 12.1203 9.22476 11.7073 9.19676 11.2853C9.17129 10.9281 9.10691 10.5746 9.00476 10.2313L9.00076 10.2183V10.2173C8.97123 10.1293 8.96682 10.0347 8.98801 9.94429C9.00921 9.85386 9.05518 9.77112 9.12076 9.70535L12.6568 6.17034C12.7249 6.10184 12.8113 6.05452 12.9057 6.03411C13.0002 6.0137 13.0985 6.02108 13.1888 6.05535L13.2848 6.07734C13.3718 6.09435 13.4928 6.11134 13.6288 6.11134C13.7428 6.11134 13.8588 6.10034 13.9718 6.07134L9.92676 2.02734C9.89776 2.14034 9.88676 2.25734 9.88676 2.37034C9.88725 2.52573 9.9081 2.68038 9.94876 2.83034L9.94976 2.83134Z" fill="currentColor"/>
  </symbol>

  <symbol  viewBox="0 0 24 24" fill="none" xmlns="http://www.w3.org/2000/svg" id="ic_sup">
    <path d="M12 20.8V22.4C13.8736 22.4 15.3616 21.7176 16.4984 20.8H12Z" fill="currentColor"/>
    <path d="M4 12.8V14.4C4 16.4 5.6 16.8 5.6 16.8C5.6 16.8 7.2 21.6 12 21.6" stroke="currentColor" stroke-width="2" stroke-miterlimit="10" stroke-linecap="round"/>
    <path d="M20.8002 13.6H18.4002C18.4002 8.60798 16.0002 6.39998 16.0002 6.39998C13.6002 12 5.6002 7.99998 5.6002 13.6H3.2002C3.2002 13.6 3.2002 13.5056 3.2002 10.4C3.2002 4.79998 8.0002 1.59998 12.0002 1.59998C15.2002 1.59998 16.0002 3.19998 16.0002 3.19998C19.2002 3.19998 20.8002 7.19998 20.8002 10.4V13.6Z" fill="currentColor"/>
    <path d="M12.3999 16.8C12.2591 16.8 11.7407 16.8 11.5999 16.8C10.9375 16.8 10.3999 17.3376 10.3999 18C10.3999 18.6624 10.9375 19.2 11.5999 19.2C11.7407 19.2 12.2591 19.2 12.3999 19.2C13.0623 19.2 13.5999 18.6624 13.5999 18C13.5999 17.3376 13.0623 16.8 12.3999 16.8Z" fill="currentColor"/>
    <path d="M12.7998 18.4H16.7998C18.567 18.4 19.9998 16.9672 19.9998 15.2V12.8" stroke="currentColor" stroke-width="2" stroke-miterlimit="10" stroke-linecap="round"/>
    <path d="M19.9999 16H18.3999V12H19.9999C20.8839 12 21.5999 12.716 21.5999 13.6V14.4C21.5999 15.284 20.8839 16 19.9999 16Z" fill="currentColor"/>
  </symbol>


  <symbol  viewBox="0 0 24 24" fill="none" xmlns="http://www.w3.org/2000/svg" id="ic_category99">
    <path d="M9 7C9.55228 7 10 7.44772 10 8C10 8.51284 9.61396 8.93551 9.11662 8.99327L9 9H7C5.34315 9 4 10.3431 4 12C4 13.5977 5.24892 14.9037 6.82373 14.9949L7 15H9C9.55228 15 10 15.4477 10 16C10 16.5128 9.61396 16.9355 9.11662 16.9933L9 17H7C4.23858 17 2 14.7614 2 12C2 9.31125 4.12231 7.11818 6.78311 7.00462L7 7H9ZM17 7C19.7614 7 22 9.23858 22 12C22 14.6888 19.8777 16.8818 17.2169 16.9954L17 17H15C14.4477 17 14 16.5523 14 16C14 15.4872 14.386 15.0645 14.8834 15.0067L15 15H17C18.6569 15 20 13.6569 20 12C20 10.4023 18.7511 9.09634 17.1763 9.00509L17 9H15C14.4477 9 14 8.55228 14 8C14 7.48716 14.386 7.06449 14.8834 7.00673L15 7H17ZM7 11H17C17.5523 11 18 11.4477 18 12C18 12.5128 17.614 12.9355 17.1166 12.9933L17 13H7C6.44772 13 6 12.5523 6 12C6 11.4872 6.38604 11.0645 6.88338 11.0067L7 11H17H7Z" fill="currentColor"/>
  </symbol>

  <symbol  viewBox="0 0 24 24" fill="none" xmlns="http://www.w3.org/2000/svg" id="ic_category100">
    <path d="M9 7C9.55228 7 10 7.44772 10 8C10 8.51284 9.61396 8.93551 9.11662 8.99327L9 9H7C5.34315 9 4 10.3431 4 12C4 13.5977 5.24892 14.9037 6.82373 14.9949L7 15H9C9.55228 15 10 15.4477 10 16C10 16.5128 9.61396 16.9355 9.11662 16.9933L9 17H7C4.23858 17 2 14.7614 2 12C2 9.31125 4.12231 7.11818 6.78311 7.00462L7 7H9ZM17 7C19.7614 7 22 9.23858 22 12C22 14.6888 19.8777 16.8818 17.2169 16.9954L17 17H15C14.4477 17 14 16.5523 14 16C14 15.4872 14.386 15.0645 14.8834 15.0067L15 15H17C18.6569 15 20 13.6569 20 12C20 10.4023 18.7511 9.09634 17.1763 9.00509L17 9H15C14.4477 9 14 8.55228 14 8C14 7.48716 14.386 7.06449 14.8834 7.00673L15 7H17ZM7 11H17C17.5523 11 18 11.4477 18 12C18 12.5128 17.614 12.9355 17.1166 12.9933L17 13H7C6.44772 13 6 12.5523 6 12C6 11.4872 6.38604 11.0645 6.88338 11.0067L7 11H17H7Z" fill="currentColor"/>
  </symbol>

  <symbol viewBox="0 0 26 24" fill="none" xmlns="http://www.w3.org/2000/svg" id="ic_category101">
    <path fill-rule="evenodd" clip-rule="evenodd" d="M13.0792 2.51068C12.9641 2.51068 12.681 2.54228 12.5306 2.84313L10.2224 7.45813C9.85712 8.18748 9.15305 8.69436 8.33901 8.81065L3.17162 9.55517C2.83033 9.60447 2.71404 9.85728 2.67864 9.96346C2.64704 10.0658 2.59648 10.3262 2.83159 10.5512L6.56809 14.1411C7.16346 14.7137 7.43396 15.5391 7.29239 16.3469L6.41262 21.4157C6.35826 21.7329 6.55672 21.9175 6.6452 21.9807C6.73874 22.0515 6.98902 22.1918 7.29871 22.03L11.9188 19.6346C12.6469 19.2592 13.514 19.2592 14.2395 19.6346L18.8583 22.0287C19.1693 22.1892 19.4196 22.0489 19.5144 21.9807C19.6029 21.9175 19.8013 21.7329 19.747 21.4157L18.8647 16.3469C18.7231 15.5391 18.9936 14.7137 19.589 14.1411L23.3255 10.5512C23.5618 10.3262 23.5113 10.0646 23.4784 9.96346C23.4443 9.85728 23.328 9.60447 22.9867 9.55517L17.8193 8.81065C17.0065 8.69436 16.3025 8.18748 15.9372 7.45687L13.6265 2.84313C13.4773 2.54228 13.1942 2.51068 13.0792 2.51068ZM7.00798 23.9994C6.48593 23.9994 5.96768 23.835 5.524 23.5114C4.75799 22.9502 4.38257 22.0237 4.54563 21.0908L5.4254 16.022C5.45827 15.8337 5.3938 15.6428 5.25476 15.5088L1.51826 11.9189C0.830619 11.2604 0.584131 10.2871 0.87486 9.38326C1.16812 8.46936 1.94424 7.81586 2.90112 7.67934L8.06851 6.93482C8.26823 6.90701 8.44014 6.7844 8.52609 6.60996L10.8355 1.99369C11.2615 1.14299 12.121 0.614624 13.0792 0.614624C14.0373 0.614624 14.8968 1.14299 15.3228 1.99369L17.6335 6.6087C17.7207 6.7844 17.8914 6.90701 18.0898 6.93482L23.2572 7.67934C24.2141 7.81586 24.9902 8.46936 25.2835 9.38326C25.5742 10.2871 25.3264 11.2604 24.6388 11.9189L20.9023 15.5088C20.7633 15.6428 20.7001 15.8337 20.7329 16.0207L21.614 21.0908C21.7758 22.0249 21.4003 22.9515 20.6331 23.5114C19.8557 24.0815 18.8432 24.1586 17.9849 23.7111L13.3674 21.3183C13.1866 21.2248 12.9705 21.2248 12.7897 21.3183L8.17216 23.7124C7.80306 23.9045 7.40489 23.9994 7.00798 23.9994Z" fill="currentColor"/>
  </symbol>


  <symbol viewBox="0 0 25 25" fill="none" xmlns="http://www.w3.org/2000/svg" id="ic_warning">
    <path d="M17.925 0C22.1625 0 25 2.975 25 7.4V17.6137C25 22.0262 22.1625 25 17.925 25H7.0875C2.85 25 0 22.0262 0 17.6137V7.4C0 2.975 2.85 0 7.0875 0H17.925ZM12.4875 10.6012C11.8875 10.6012 11.4 11.1 11.4 11.7012V17.2262C11.4 17.8262 11.8875 18.3137 12.4875 18.3137C13.1 18.3137 13.5875 17.8262 13.5875 17.2262V11.7012C13.5875 11.1 13.1 10.6012 12.4875 10.6012ZM12.5125 6.63875C11.9 6.63875 11.4125 7.12625 11.4125 7.73875C11.4125 8.3375 11.9 8.82625 12.4875 8.82625C13.1125 8.82625 13.6 8.3375 13.6 7.73875C13.6 7.12625 13.1125 6.63875 12.5125 6.63875Z" fill="currentColor"/>
  </symbol>

  <symbol viewBox="0 0 41 31" fill="none" xmlns="http://www.w3.org/2000/svg" id="ic_video_record">
    <path d="M28.3333 23.8229C28.3333 27.3379 25.4837 30.1875 21.9687 30.1875H7.28121C3.76614 30.1875 0.916626 27.3379 0.916626 23.8229V7.17708C0.916626 3.66201 3.76614 0.8125 7.28121 0.8125H21.9687C25.4837 0.8125 28.3333 3.66201 28.3333 7.17708V23.8229ZM39.6172 3.54112C39.918 3.89519 40.0833 4.34471 40.0833 4.80938V26.1901C40.0833 27.2717 39.2065 28.1485 38.125 28.1485C37.6602 28.1485 37.2108 27.9832 36.8567 27.6824L30.2916 22.1013V8.89638L36.8567 3.31719C37.6808 2.61675 38.9167 2.71702 39.6172 3.54112Z" fill="#E93030"/>
  </symbol>

  <symbol  viewBox="0 0 137 103" fill="none" xmlns="http://www.w3.org/2000/svg" id="ic_video_empty">
    <path d="M95.6667 80.3646C95.6667 92.5549 85.7841 102.438 73.5938 102.438H22.6563C10.4657 102.438 0.583344 92.5549 0.583344 80.3646V22.6354C0.583344 10.4448 10.4657 0.5625 22.6563 0.5625H73.5938C85.7841 0.5625 95.6667 10.4448 95.6667 22.6354V80.3646ZM134.8 10.0256C135.843 11.2535 136.417 12.8125 136.417 14.424V88.5743C136.417 92.3254 133.376 95.366 129.625 95.366C128.013 95.366 126.455 94.7928 125.227 93.7496L102.458 74.394V28.5981L125.227 9.24897C128.085 6.8198 132.371 7.16753 134.8 10.0256Z" fill="#AAAAAA"/>
  </symbol>

  <symbol  viewBox="0 0 28 30" fill="none" xmlns="http://www.w3.org/2000/svg" id="ic_video_record_stop">
    <path d="M27.4167 23.0104C27.4167 26.5254 24.5671 29.375 21.0521 29.375H6.36458C2.84951 29.375 0 26.5254 0 23.0104V6.36458C0 2.84951 2.84951 0 6.36458 0H21.0521C24.5671 0 27.4167 2.84951 27.4167 6.36458V23.0104Z" fill="#E93030"/>
  </symbol>

  <symbol  viewBox="0 0 26 26" fill="none" xmlns="http://www.w3.org/2000/svg" id="ic_video_record_replace">
    <path d="M16.526 0.380493L16.4126 0.279547C15.9024 -0.124247 15.1589 -0.0905894 14.6875 0.380493L14.5865 0.493801C14.1825 1.00371 14.2162 1.7466 14.6875 2.21768L16.3761 3.90377L9.09897 3.90403L8.78617 3.90931C3.90578 4.07406 0 8.07955 0 12.9967C0 14.8748 0.569829 16.6199 1.54522 18.0645C1.78131 18.3913 2.1658 18.604 2.6 18.604C3.31796 18.604 3.9 18.0223 3.9 17.3049C3.9 17.0239 3.81072 16.7637 3.65982 16.5525L3.4841 16.269C2.92207 15.3082 2.6 14.1899 2.6 12.9967C2.6 9.40987 5.50969 6.50222 9.09897 6.50222L16.3735 6.50194L14.6875 8.18855L14.5865 8.30186C14.1825 8.81179 14.2162 9.55466 14.6875 10.0258C15.1952 10.533 16.0183 10.533 16.526 10.0258L20.4328 6.12172L20.5338 6.00841C20.9378 5.4985 20.9041 4.75561 20.4328 4.28453L16.526 0.380493ZM24.4225 7.88326C24.1844 7.58085 23.8148 7.38663 23.4 7.38663C22.682 7.38663 22.1 7.96826 22.1 8.68573C22.1 8.95636 22.1828 9.20766 22.3232 9.41503C23.0038 10.4418 23.4 11.673 23.4 12.9967C23.4 16.5834 20.4903 19.4911 16.901 19.4911L9.6395 19.4903L11.3213 17.8115L11.43 17.6884C11.7953 17.2182 11.7927 16.555 11.4223 16.0877L11.3213 15.9743L11.1981 15.8656C10.7276 15.5006 10.0639 15.5032 9.5962 15.8733L9.48281 15.9743L5.57604 19.8783L5.46731 20.0015C5.10204 20.4717 5.10462 21.1348 5.47503 21.6023L5.57604 21.7155L9.48281 25.6195L9.60527 25.7276C10.1153 26.1238 10.8527 26.0878 11.3213 25.6195C11.7927 25.1484 11.8264 24.4056 11.4223 23.8956L11.3213 23.7824L9.6265 22.0885L16.901 22.0893L17.2138 22.0839C22.0943 21.9192 26 17.9138 26 12.9967C26 11.0988 25.4181 9.33661 24.4228 7.87875L24.4225 7.88326Z" fill="#FF800B"/>
  </symbol>

  <symbol viewBox="0 0 7 11" fill="none" xmlns="http://www.w3.org/2000/svg" id="ic_arrow_home">
      <path d="M4.30509 5.5L0.323546 9.23178C-0.107849 9.63611 -0.107849 10.2924 0.323546 10.6968C0.75494 11.1011 1.45517 11.1011 1.88657 10.6968L6.69443 6.19049C7.10186 5.80862 7.10186 5.1904 6.69443 4.80951L1.88657 0.303249C1.45517 -0.101084 0.75494 -0.101084 0.323546 0.303249C-0.107849 0.707582 -0.107849 1.36389 0.323546 1.76822L4.30509 5.5Z" fill="currentColor"/>
      <defs>
      <linearGradient id="paint0_linear_485_2351" x1="-3.0529" y1="5.84642" x2="6.35115" y2="-0.239474" gradientUnits="userSpaceOnUse">
      <stop stop-color="currentColor"/>
      <stop offset="1" stop-color="currentColor"/>
      </linearGradient>
      </defs>
  </symbol>

  <symbol width="20" height="20" viewBox="0 0 20 20" fill="none" xmlns="http://www.w3.org/2000/svg" id="link-more">
    <circle cx="10" cy="10" r="10" fill="var(--main_color)"/>
    <circle cx="10" cy="10" r="10" fill="url(#paint0_linear_986_15754)"/>
    <path d="M11.4439 10.0001L8.25871 12.9855C7.9136 13.3089 7.9136 13.834 8.25871 14.1575C8.60383 14.4809 9.16402 14.4809 9.50913 14.1575L13.3554 10.5525C13.6814 10.247 13.6814 9.75238 13.3554 9.44767L9.50913 5.84266C9.16402 5.51919 8.60383 5.51919 8.25871 5.84266C7.9136 6.16613 7.9136 6.69117 8.25871 7.01464L11.4439 10.0001Z" fill="white"/>
  </symbol>

  <symbol width="17" height="17" viewBox="0 0 17 17" fill="none" xmlns="http://www.w3.org/2000/svg" id="remark">
    <path d="M17 8.49928C17 3.80526 13.1944 0 8.5 0C3.80558 0 0 3.80526 0 8.49928C0 9.87642 0.328414 11.2072 0.947419 12.4023L0.0399076 15.6515C-0.0123334 15.8383 -0.012359 16.0361 0.0398735 16.2231C0.197693 16.7882 0.783802 17.1184 1.34898 16.9606L4.60093 16.0534C5.79515 16.671 7.12445 16.9986 8.5 16.9986C13.1944 16.9986 17 13.1933 17 8.49928ZM6.18828 5.28627L8.5 7.59776L10.8117 5.28627C11.0607 5.03734 11.4643 5.03734 11.7133 5.28627C11.9622 5.53521 11.9622 5.93882 11.7133 6.18776L9.4016 8.49928L11.7133 10.8108C11.9622 11.0598 11.9622 11.4633 11.7133 11.7123C11.4643 11.9612 11.0607 11.9612 10.8117 11.7123L8.5 9.4008L6.18828 11.7123C5.93932 11.9612 5.53568 11.9612 5.28672 11.7123C5.03776 11.4633 5.03776 11.0598 5.28672 10.8108L7.5984 8.49928L5.28672 6.18776C5.03776 5.93882 5.03776 5.53521 5.28672 5.28627C5.53568 5.03734 5.93932 5.03734 6.18828 5.28627Z" fill="#E31818"/>
  </symbol>

  
  <symbol width="18" height="18" viewBox="0 0 18 18" fill="none" xmlns="http://www.w3.org/2000/svg" id="subtract">
    <path fill-rule="evenodd" clip-rule="evenodd" d="M8.60645 0C13.3596 0 17.2129 3.85323 17.2129 8.6064C17.2129 13.3597 13.3596 17.2128 8.60645 17.2128C7.19464 17.2128 5.831 16.872 4.60942 16.2302L0.916914 17.1917C0.52594 17.2935 0.126429 17.0591 0.0245972 16.6681C-0.00689381 16.5472 -0.00690245 16.4203 0.0245713 16.2994L0.985352 12.6087C0.341848 11.3858 0 10.0203 0 8.6064C0 3.85323 3.85323 0 8.60645 0ZM11.4948 5.98052L7.64794 9.82728L5.95275 8.13215C5.70068 7.88007 5.29197 7.88007 5.0399 8.13215C4.78783 8.38424 4.78783 8.79287 5.0399 9.04495L7.19154 11.1966C7.44362 11.4486 7.85225 11.4486 8.10434 11.1966L12.4076 6.89334C12.6596 6.64129 12.6596 6.23259 12.4076 5.98052C12.1555 5.72844 11.7468 5.72844 11.4948 5.98052Z" fill="#5EC62D"/>
  </symbol>

  
  <symbol width="20" height="20" viewBox="0 0 20 20" fill="none" xmlns="http://www.w3.org/2000/svg" id="turn">
    <circle cx="10" cy="10" r="10" transform="rotate(-90 10 10)" fill="var(--main_color)"/>
    <path d="M10.0004 8.55608L12.9858 11.7413C13.3093 12.0864 13.8343 12.0864 14.1578 11.7413C14.4813 11.3962 14.4813 10.836 14.1578 10.4909L10.5528 6.64461C10.2473 6.31867 9.75271 6.31867 9.448 6.64461L5.84299 10.4909C5.51952 10.836 5.51952 11.3962 5.84299 11.7413C6.16646 12.0864 6.6915 12.0864 7.01497 11.7413L10.0004 8.55608Z" fill="white"/>
  </symbol>

  
  <symbol width="19" height="19" viewBox="0 0 19 19" fill="none" xmlns="http://www.w3.org/2000/svg" id="remark-no">
    <path d="M9.5 0C4.256 0 0 4.256 0 9.5C0 14.744 4.256 19 9.5 19C14.744 19 19 14.744 19 9.5C19 4.256 14.744 0 9.5 0ZM9.5 14.25C8.9775 14.25 8.55 13.8225 8.55 13.3V9.5C8.55 8.9775 8.9775 8.55 9.5 8.55C10.0225 8.55 10.45 8.9775 10.45 9.5V13.3C10.45 13.8225 10.0225 14.25 9.5 14.25ZM10.45 6.65H8.55V4.75H10.45V6.65Z" fill="#E31818"/>
  </symbol>

  
  <symbol width="19" height="19" viewBox="0 0 19 19" fill="none" xmlns="http://www.w3.org/2000/svg" id="remark-yes">
    <path d="M9.5 0C4.256 0 0 4.256 0 9.5C0 14.744 4.256 19 9.5 19C14.744 19 19 14.744 19 9.5C19 4.256 14.744 0 9.5 0ZM6.9255 13.5755L3.515 10.165C3.1445 9.7945 3.1445 9.196 3.515 8.8255C3.8855 8.455 4.484 8.455 4.8545 8.8255L7.6 11.5615L14.136 5.0255C14.5065 4.655 15.105 4.655 15.4755 5.0255C15.846 5.396 15.846 5.9945 15.4755 6.365L8.265 13.5755C7.904 13.946 7.296 13.946 6.9255 13.5755Z" fill="#5EC62D"/>
  </symbol>

  <symbol width="19" height="19" viewBox="0 0 19 19" fill="none" xmlns="http://www.w3.org/2000/svg" id="details-video">
    <path d="M0 9.5C0 4.25329 4.25329 0 9.5 0C14.7467 0 19 4.25329 19 9.5C19 14.7467 14.7467 19 9.5 19C4.25329 19 0 14.7467 0 9.5ZM8.41282 5.84723C7.62138 5.40886 6.65 5.98128 6.65 6.88605V12.114C6.65 13.0188 7.62138 13.5912 8.41282 13.1528L13.8827 10.1233C14.1094 9.9978 14.25 9.75906 14.25 9.5C14.25 9.24094 14.1094 9.00229 13.8827 8.8767L8.41282 5.84723Z" fill="var(--main_color)"/>
  </symbol>

  
  <symbol width="19" height="19" viewBox="0 0 19 19" fill="none" xmlns="http://www.w3.org/2000/svg" id="details-video2">
    <path d="M0 9.5C0 4.25329 4.25329 0 9.5 0C14.7467 0 19 4.25329 19 9.5C19 14.7467 14.7467 19 9.5 19C4.25329 19 0 14.7467 0 9.5ZM8.41282 5.84723C7.62138 5.40886 6.65 5.98128 6.65 6.88605V12.114C6.65 13.0188 7.62138 13.5912 8.41282 13.1528L13.8827 10.1233C14.1094 9.9978 14.25 9.75906 14.25 9.5C14.25 9.24094 14.1094 9.00229 13.8827 8.8767L8.41282 5.84723Z" fill="white"/>
  </symbol>




</svg>